<ttFont>
          <CharString index="0">
            rmoveto
            -228 -6 116 -222 283 -38 callgsubr
            -351 -237 -321 -401 -10 vhcurveto
            211 130 rmoveto
            176 20 120 268 204 hhcurveto
            74 54 -28 -91 -197 -310 -121 -162 -7 hvcurveto
            return
          </CharString>
          <CharString index="1">
            rmoveto
            -276 5 153 -168 298 hhcurveto
            341 204 171 472 61 hvcurveto
            114 903 rlineto
            -193 hlineto
            -112 -886 rlineto
            -358 -45 -128 -141 -214 hhcurveto
            -175 -102 96 195 -4 hvcurveto
            -1 57 5 62 8 73 114 902 rcurveline
            -37 callsubr
            -118 -937 -6 -59 -8 -54 1 -52 rlinecurve
            return
          </CharString>
          <CharString index="2">
            rmoveto
            424 291 416 521 -9 hvcurveto
            343 -6 -160 282 -325 hhcurveto
            -412 -304 -406 -530 10 hvcurveto
            -343 6 160 -283 325 hhcurveto
            32 152 rmoveto
            -211 -99 159 353 -7 hvcurveto
            380 -7 192 361 283 hhcurveto
            211 100 -153 -353 6 hvcurveto
            -398 7 -191 -349 -284 hhcurveto
            return
          </CharString>
          <CharString index="3">
            rmoveto
            -124 -120 -6 -54 rlineto
            40 -9 32 -54 -46 vvcurveto
            -76 -20 -37 -48 -37 vhcurveto
            -3 -26 80 -50 rlineto
            78 18 104 108 164 vvcurveto
            96 -51 105 -82 18 vhcurveto
            return
          </CharString>
          <CharString index="4">
            rmoveto
            175 12 151 188 83 99 78 152 65 156 rlinecurve
            33 -232 58 -375 175 12 151 182 173 208 176 326 25 312 rlinecurve
            4 46 2 25 -3 45 rrcurveto
            -191 hlineto
            6 -46 -30 -173 -12 -67 -41 -232 -65 -111 -109 -175 -131 -182 rcurveline
            -12 205 -73 781 rlineto
            -214 hlineto
            31 -223 -46 -232 -96 -179 -102 -164 rlinecurve
            -134 -188 -10 205 -71 781 rlineto
            -218 hlineto
            114 -781 rlineto
            return
          </CharString>
          <CharString index="5">
            289 -16 rmoveto
            121 hlineto
            -263 -180 -123 -63 -127 hhcurveto
            -70 -33 23 7 -16 hvcurveto
            -56 -162 rlineto
            -12 36 68 -15 38 hhcurveto
            287 153 205 142 114 hvcurveto
            90 112 85 131 74 140 135 255 96 267 19 256 4 47 0 45 -3 41 rrcurveto
            -192 hlineto
            -1 -44 -2 -45 -4 -45 -25 -256 -68 -269 -151 -242 -103 -183 rcurveline
            -40 303 -84 781 rlineto
            -216 hlineto
            109 -781 rlineto
            return
          </CharString>
          <CharString index="6">
            rmoveto
            160 141 47 30 101 hvcurveto
            54 16 44 13 39 4 82 635 rcurveline
            -427 hlineto
            -20 -159 rlineto
            232 hlineto
            -46 -358 rlineto
            -49 -110 -125 -24 -89 hhcurveto
            -250 -80 262 247 -4 hvcurveto
            306 -5 143 432 394 hhcurveto
            176 117 -50 -36 47 hvcurveto
            62 179 -38 11 rlineto
            21 -64 -113 35 -184 hhcurveto
            -418 -328 -13 callsubr
            140 -333 354 hhcurveto
            return
          </CharString>
          <CharString index="7">
            -260 98 -172 212 vhcurveto
            35 152 rmoveto
            -88 -55 31 callgsubr
            56 55 -10 -15 44 hvcurveto
            -86 -605 rlineto
            -105 -66 -124 -142 -141 hhcurveto
            return
          </CharString>
          <CharString index="8">
            22 -48 -50 4 -50 hhcurveto
            -245 -141 -179 -268 -36 hvcurveto
            -14 -94 rlineto
            -132 hlineto
            -28 -156 rlineto
            139 hlineto
            return
          </CharString>
          <CharString index="9">
            rmoveto
            266 120 70 30 39 hvcurveto
            -30 166 rlineto
            -32 -39 -141 -76 -179 hhcurveto
            -229 -103 224 282 -5 hvcurveto
            286 -5 118 446 388 hhcurveto
            163 68 -48 -17 31 hvcurveto
            70 164 -54 18 rlineto
            24 -69 -72 25 -130 hhcurveto
            -406 -314 -13 callsubr
            124 -333 374 hhcurveto
            return
          </CharString>
          <CharString index="10">
            rmoveto
            78 71 -31 callgsubr
            63 2 -47 53 -77 hhcurveto
            -65 -75 -67 -77 -3 hvcurveto
            -64 -3 53 -55 63 hhcurveto
            return
          </CharString>
          <CharString index="11">
            rmoveto
            -107 callgsubr
            endchar
          </CharString>
          <CharString index="12">
            rmoveto
            313 243 211 -234 94 68 -190 344 -33 callsubr
            -344 rlineto
            endchar
          </CharString>
          <CharString index="13">
            rmoveto
            204 hlineto
            330 860 55 172 14 -172 96 -860 rlineto
            202 hlineto
            629 1540 rlineto
            -200 hlineto
            -417 -1095 -74 -215 -15 216 -116 1094 rlineto
            -190 hlineto
            24 -217 -343 -878 -61 -215 -32 216 -140 1094 -22 callsubr
            return
          </CharString>
          <CharString index="14">
            rmoveto
            -283 131 -167 246 176 131 113 69 51 vhcurveto
            -65 106 rlineto
            -97 -100 -75 -42 -88 hhcurveto
            -134 -74 83 238 324 194 231 170 72 62 -15 -43 52 hvcurveto
            51 167 rlineto
            29 -57 -91 9 -72 hhcurveto
            -385 -195 -409 -313 hvcurveto
            return
          </CharString>
          <CharString index="15">
            rmoveto
            313 273 211 -264 94 68 -190 374 -33 callsubr
            -374 rlineto
            return
          </CharString>
          <CharString index="16">
            -32 -42 -119 -66 -52 hhcurveto
            -49 -7 55 54 39 7 32 10 75 hvcurveto
            76 590 rlineto
            261 hlineto
            23 156 rlineto
            -262 hlineto
            36 280 rlineto
            -165 hlineto
            -62 -280 rlineto
            -105 hlineto
            -42 -156 rlineto
            116 hlineto
            -84 -688 rlineto
            -13 -100 1 -22 -11 vvcurveto
            return
          </CharString>
          <CharString index="17">
            185 hlineto
            126 1009 27 298 53 -232 455 -1075 rlineto
            193 hlineto
            193 1530 rlineto
            -188 hlineto
            -123 -1020 -19 -249 -63 207 -440 1062 rlineto
            -206 hlineto
            return
          </CharString>
          <CharString index="18">
            rmoveto
            178 158 86 182 167 -108 98 -168 -161 -186 -90 -185 -164 105 -94 182 hvcurveto
            5 106 rmoveto
            -88 -65 66 80 136 102 37 90 90 60 -59 -81 -147 -87 -32 -102 hvcurveto
            return
          </CharString>
          <CharString index="19">
            hstem
            870 199 vstem
            88 hmoveto
            -29 callsubr
            98 718 rlineto
            136 105 167 121 112 -14 callsubr
            -29 -186 -23 -172 rrcurveto
            196 hlineto
            25 169 30 188 -18 callsubr
            -165 -168 -110 -137 -115 vhcurveto
            40 250 return
          </CharString>
          <CharString index="20">
            -99 callsubr
            endchar
          </CharString>
          <CharString index="21">
            9 -48 -51 6 -44 hhcurveto
            -451 -197 -31 callsubr
            -260 98 -172 212 hvcurveto
            35 152 -45 callgsubr
            55 -10 -15 44 hvcurveto
            -82 -599 rlineto
            -105 -67 -133 -148 -144 hhcurveto
            return
          </CharString>
          <CharString index="22">
            138 -69 callgsubr
            return
          </CharString>
          <CharString index="23">
            146 428 -106 callsubr
            return
          </CharString>
          <CharString index="24">
            254 -20 176 -174 173 812 187 -14 -20 34 -20 hstemhm
            306 206 hintmask 00000000
            hintmask 10001100
            370 56 rmoveto
            24 -46 88 -29 45 -1 rrcurveto
            177 66 71 71 75 hvcurveto
            -97 9 65 -43 80 hhcurveto
            139 99 117 21 15 hvcurveto
            hintmask 01010100
            -62 107 rlineto
            -47 -47 -34 -25 -38 hhcurveto
            -21 -19 31 52 7 hvcurveto
            116 902 rlineto
            -194 hlineto
            -108 -809 rlineto
            hintmask 10001100
            -71 -55 -112 -104 -103 hhcurveto
            -88 -83 43 147 16 hvcurveto
            -1 69 503 13 104 vhcurveto
            141 18 -70 61 -78 hhcurveto
            -152 -91 -104 -21 -14 hvcurveto
            hintmask 10100100
            64 -115 rlineto
            25 25 32 28 37 hhcurveto
            28 2 -59 -57 -8 hvcurveto
            -181 -1223 rlineto
            185 hlineto
            endchar
          </CharString>
          <CharString index="25">
            -29 callsubr
            155 1140 rlineto
            -195 hlineto
            return
          </CharString>
          <CharString index="26">
            rmoveto
            158 109 138 133 68 hvcurveto
            -153 46 118 -118 207 -38 callgsubr
            -103 -93 -28 -49 -80 vhcurveto
            77 -128 -80 0 -79 hhcurveto
            -451 -187 -31 callsubr
            -260 78 -172 212 hvcurveto
            45 152 rmoveto
            -88 -45 31 callgsubr
            64 60 -19 -31 58 hvcurveto
            -114 -131 -67 -188 -5 -210 rrcurveto
            -22 vlineto
            -131 -65 -93 -145 -110 hhcurveto
            479 428 rmoveto
            return
          </CharString>
          <CharString index="27">
            83 4 -10 callsubr
            97 718 rlineto
            135 97 152 118 103 hhcurveto
            65 41 -15 -106 -67 -17 -124 -22 -149 hvcurveto
            -23 -156 -28 -182 -23 -172 rrcurveto
            196 hlineto
            25 169 29 184 22 158 15 102 12 91 7 68 rrcurveto
            111 96 127 88 89 -14 callsubr
            -28 -182 -23 -172 rrcurveto
            196 hlineto
            25 169 29 184 -18 callsubr
            -142 -144 -91 -119 -107 vhcurveto
            149 -18 -73 61 -127 hhcurveto
            -149 -150 -101 -129 -107 hvcurveto
            return
          </CharString>
          <CharString index="28">
            rmoveto
            -208 86 -82 176 161 144 105 133 102 vhcurveto
            return
          </CharString>
          <CharString index="29">
            rmoveto
            73 65 -276 342 -124 -128 62 -111 169 -132 96 -36 rlinecurve
            return
          </CharString>
          <CharString index="30">
            69 rmoveto
            -240 -32 -46 -207 -177 hhcurveto
            -11 -32 5 9 -11 hvcurveto
            -52 -111 rlineto
            -18 26 45 -21 63 hhcurveto
            213 158 199 319 43 hvcurveto
            154 1136 rlineto
            -195 hlineto
            return
          </CharString>
          <CharString index="31">
            -92 -32 140 -153 hhcurveto
            -104 -130 -83 -86 -43 hvcurveto
            return
          </CharString>
          <CharString index="32">
            rmoveto
            -66 54 -46 65 95 62 60 100 59 -34 53 -85 -95 -62 -77 -83 vhcurveto
            return
          </CharString>
          <CharString index="33">
            12 callsubr
            rmoveto
            80 69 -31 callgsubr
            hintmask 00100010
            -51 callsubr
            hintmask 00010010
            4 callsubr
            hintmask 00010100
            -43 callgsubr
            hintmask 00100100
            63 2 -47 53 -77 hhcurveto
            -65 -75 -67 -77 -3 hvcurveto
            hintmask 00010100
            -64 -3 53 -55 63 hhcurveto
            return
          </CharString>
          <CharString index="34">
            rmoveto
            -176 95 -134 183 252 160 221 219 172 -79 123 -198 -239 -174 -213 -212 vhcurveto
            161 2 rmoveto
            118 73 183 151 86 49 -70 -111 -114 -64 -195 -149 -93 -53 77 112 vhcurveto
            return
          </CharString>
          <CharString index="35">
            -104 callgsubr
            endchar
          </CharString>
          <CharString index="36">
            1593 -94 callgsubr
            return
          </CharString>
          <CharString index="37">
            31 -3 54 -3 28 -1 470 -12 316 421 -10 529 rrcurveto
            371 -6 -164 253 -407 hhcurveto
            return
          </CharString>
          <CharString index="38">
            114 120 81 102 34 hvcurveto
            -85 89 rlineto
            return
          </CharString>
          <CharString index="39">
            21 -58 callsubr
            return
          </CharString>
          <CharString index="40">
            -25 -151 rlineto
            -16 22 73 -12 53 hhcurveto
            148 130 73 226 return
          </CharString>
          <CharString index="41">
            -16 152 -115 -21 1013 143 return
          </CharString>
          <CharString index="42">
            rmoveto
            -29 -130 -114 -132 -158 -51 35 -88 rcurveline
            201 34 171 84 86 272 31 95 91 689 72 671 rrcurveto
            -37 callsubr
            -51 -435 -51 -619 -86 -390 rrcurveto
            return
          </CharString>
          <CharString index="43">
            rmoveto
            103 38 212 167 58 116 -135 119 rcurveline
            -312 -375 rlineto
            -321 -65 rmoveto
            84 37 216 169 51 116 -133 118 rcurveline
            -312 -375 rlineto
            endchar
          </CharString>
          <CharString index="44">
            rmoveto
            158 hlineto
            223 1290 rlineto
            -225 hlineto
            -271 -1675 rmoveto
            -78 -10 59 -47 70 hhcurveto
            88 77 58 89 12 hvcurveto
            68 9 -34 57 -94 hhcurveto
            -85 -81 -64 -83 -11 hvcurveto
            return
          </CharString>
          <CharString index="45">
            63 -20 171 -130 -55 callgsubr
            return
          </CharString>
          <CharString index="46">
            102 68 132 143 145 hhcurveto
            88 55 -89 -215 -237 -129 -336 -286 return
          </CharString>
          <CharString index="47">
            157 545 155 520 153 return
          </CharString>
          <CharString index="48">
            -2 111 17 -138 163 hhcurveto
            return
          </CharString>
          <CharString index="49">
            -21 1530 -20 return
          </CharString>
          <CharString index="50">
            -34 rlineto
            17 -65 -90 17 -71 hhcurveto
            -451 return
          </CharString>
          <CharString index="51">
            -48 callsubr
            -157 -131 -102 -100 -76 hvcurveto
            36 193 55 491 -10 callgsubr
            -2 -1487 rmoveto
            80 608 rlineto
            -61 callsubr
            -55 -54 9 15 -44 hvcurveto
            return
          </CharString>
          <CharString index="52">
            -3 callgsubr
            61 489 196 218 50 -88 77 -144 73 -136 rlinecurve
            86 -162 79 -150 19 -27 rrcurveto
            238 hlineto
            -69 103 -67 116 -68 121 -92 163 -94 175 -105 170 615 682 rcurveline
            -232 hlineto
            -672 -772 98 772 -22 callsubr
            endchar
          </CharString>
          <CharString index="53">
            rmoveto
            778 hlineto
            7 159 -542 -33 rlineto
            309 191 249 150 284 vvcurveto
            119 -125 143 -241 -3 vhcurveto
            -190 -3 -153 -114 -58 -80 70 -94 rcurveline
            91 89 109 47 113 hhcurveto
            104 90 -37 -124 -224 -488 -289 -166 -87 hvcurveto
            return
          </CharString>
          <CharString index="54">
            -29 callsubr
            208 1638 rlineto
            -195 hlineto
            106 -1004 rmoveto
            355 -630 rlineto
            227 hlineto
            -364 597 84 42 122 92 94 120 rlinecurve
            70 89 48 86 10 110 rrcurveto
            -186 hlineto
            -44 -120 -60 -82 -77 -84 -86 -94 -98 -72 -95 -53 1 -1 rcurveline
            endchar
          </CharString>
          <CharString index="55">
            -39 -56 -38 -6 -36 hhcurveto
            -23 -40 11 55 return
          </CharString>
          <CharString index="56">
            63 3 -48 53 -76 hhcurveto
            -64 -82 -67 -77 hvcurveto
            return
          </CharString>
          <CharString index="57">
            -3 callgsubr
            82 653 rlineto
            73 131 -2 0 hvcurveto
            92 -7 66 -162 54 -176 rrcurveto
            return
          </CharString>
          <CharString index="58">
            141 53 118 104 4 147 rrcurveto
            118 4 -115 98 -194 hhcurveto
            -144 -131 -45 -79 -114 hvcurveto
            46 -112 84 56 93 36 92 2 rlinecurve
            108 3 49 -36 -79 vvcurveto
            -153 -172 -63 -141 -28 vhcurveto
            -21 -145 161 35 rlineto
            return
          </CharString>
          <CharString index="59">
            hhcurveto
            451 197 427 313 260 -98 172 -212 return
          </CharString>
          <CharString index="60">
            253 -16 161 1385 -20 return
          </CharString>
          <CharString index="61">
            rmoveto
            -107 callgsubr
            -420 hmoveto
            -107 callgsubr
            endchar
          </CharString>
          <CharString index="62">
            562 -984 rmoveto
            -91 callgsubr
            return
          </CharString>
          <CharString index="63">
            vvcurveto
            208 -74 82 -148 return
          </CharString>
          <CharString index="64">
            307 291 -35 callgsubr
            return
          </CharString>
          <CharString index="65">
            rmoveto
            -88 -55 89 215 237 129 -30 callgsubr
            return
          </CharString>
          <CharString index="66">
            rmoveto
            -25 callgsubr
            hintmask 11001000
            597 782 rlineto
            hintmask 10101000
            -49 callgsubr
            endchar
          </CharString>
          <CharString index="67">
            297 0 170 hstem
            -33 1365 vstem
            -21 hmoveto
            1336 hlineto
            17 27 -569 1481 rlineto
            -32 hlineto
            -764 -1486 rlineto
            317 148 rmoveto
            441 904 327 -904 rlineto
            endchar
          </CharString>
          <CharString index="68">
            rmoveto
            -23 callgsubr
            hintmask 11001000
            780 1141 rlineto
            hintmask 10101000
            -48 callgsubr
            endchar
          </CharString>
          <CharString index="69">
            hmoveto
            -36 callsubr
          </CharString>
          <CharString index="70">
            -198 hlineto
            return
          </CharString>
          <CharString index="71">
            -89 callgsubr
            endchar
          </CharString>
          <CharString index="72">
            rmoveto
            586 -378 70 112 -414 351 510 356 -38 115 -692 -396 rlineto
            return
          </CharString>
          <CharString index="73">
            rmoveto
            -586 378 -70 -112 414 -351 -510 -356 38 -115 692 396 rlineto
            return
          </CharString>
          <CharString index="74">
            rlineto
            -178 hlineto
            -327 return
          </CharString>
          <CharString index="75">
            153 -5 -21 10 callgsubr
            return
          </CharString>
          <CharString index="76">
            -427 -313 return
          </CharString>
          <CharString index="77">
            21 callgsubr
            87 694 rlineto
            653 hlineto
            -87 -694 rlineto
            -3 callgsubr
            193 1530 -22 callsubr
            -87 -686 rlineto
            -653 hlineto
            87 686 -22 callsubr
            return
          </CharString>
          <CharString index="78">
            195 hlineto
            return
          </CharString>
          <CharString index="79">
            136 335 -24 -383 -50 -1020 rlineto
            201 hlineto
            36 1530 rlineto
            -287 hlineto
            -427 -1060 -50 -169 -15 169 -161 1060 rlineto
            -254 hlineto
            endchar
          </CharString>
          <CharString index="80">
            -60 -501 159 347 -15 callsubr
            return
          </CharString>
          <CharString index="81">
            11 -11 -30 2 -20 hhcurveto
            -175 -125 -138 -81 -50 hvcurveto
            return
          </CharString>
          <CharString index="82">
            -91 -718 rmoveto
            72 570 rlineto
            3 41 63 4 101 hhcurveto
            201 116 -81 -174 3 hvcurveto
            -256 5 -180 -85 -248 hhcurveto
            -40 -95 4 15 -39 hvcurveto
            endchar
          </CharString>
          <CharString index="83">
            -16 -194 rlineto
            174 hlineto
            221 1638 rlineto
            -195 hlineto
            -68 -497 rlineto
            return
          </CharString>
          <CharString index="84">
            176 79 139 100 86 hhcurveto
            49 29 -4 -10 20 hvcurveto
            return
          </CharString>
          <CharString index="85">
            rlineto
            -37 callsubr
            return
          </CharString>
          <CharString index="86">
            21 -21 64 123 490 122 -54 123 490 122 50 -20 hstemhm
            201 161 359 170 146 161 359 170 return
          </CharString>
          <CharString index="87">
            -119 -75 -16 -115 hhcurveto
            -102 hlineto
            107 -718 rmoveto
            return
          </CharString>
          <CharString index="88">
            162 -22 162 return
          </CharString>
          <CharString index="89">
            22 158 rrcurveto
            23 159 17 131 61 -44 callsubr
            return
          </CharString>
          <CharString index="90">
            -256 -362 1959 hstem
            -93 1035 vstem
            79 -362 rmoveto
            863 1959 rlineto
            -174 hlineto
            -861 -1959 rlineto
            endchar
          </CharString>
          <CharString index="91">
            389 -16 rmoveto
            157 131 106 104 77 hvcurveto
            return
          </CharString>
          <CharString index="92">
            -21 1156 -20 return
          </CharString>
          <CharString index="93">
            hhcurveto
            65 40 -15 -106 -67 -17 -124 -22 -149 hvcurveto
            -23 -156 return
          </CharString>
          <CharString index="94">
            -371 -548 10 hvcurveto
            -310 5 return
          </CharString>
          <CharString index="95">
            -66 -16 155 1256 151 return
          </CharString>
          <CharString index="96">
            263 -242 -21 hstemhm
            return
          </CharString>
          <CharString index="97">
            rmoveto
            -29 callsubr
            return
          </CharString>
          <CharString index="98">
            156 693 158 hstem
            218 855 vstem
            218 693 rmoveto
            837 hlineto
            18 158 rlineto
            -837 hlineto
            endchar
          </CharString>
          <CharString index="99">
            -145 0 156 828 156 -52 52 return
          </CharString>
          <CharString index="100">
            hstemhm
            146 203 return
          </CharString>
          <CharString index="101">
            267 -16 150 -113 -21 1400 146 -16 -20 return
          </CharString>
          <CharString index="102">
            -97 callsubr
            endchar
          </CharString>
          <CharString index="103">
            -83 -3 -92 12 -61 20 rrcurveto
            endchar
          </CharString>
          <CharString index="104">
            rmoveto
            70 47 66 47 89 115 74 -172 153 hhcurveto
            return
          </CharString>
          <CharString index="105">
            663 11 -21 1540 -20 return
          </CharString>
          <CharString index="106">
            74 132 93 75 54 return
          </CharString>
          <CharString index="107">
            hstemhm
            108 206 return
          </CharString>
          <CharString index="108">
            50 159 rlineto
            return
          </CharString>
          <CharString index="109">
            17 187 rlineto
            -175 hlineto
            -220 -1653 rlineto
            -29 callsubr
            88 664 rmoveto
            80 608 rlineto
            return
          </CharString>
          <CharString index="110">
            -82 callgsubr
            endchar
          </CharString>
          <CharString index="111">
            -66 52 -53 63 vhcurveto
            return
          </CharString>
          <CharString index="112">
            -90 callgsubr
            endchar
          </CharString>
          <CharString index="113">
            rmoveto
            138 hlineto
            196 592 rlineto
            -205 hlineto
            return
          </CharString>
          <CharString index="114">
            397 286 141 363 -6 hvcurveto
            -3 172 -130 119 -163 21 rrcurveto
            return
          </CharString>
          <CharString index="115">
            183 62 125 136 -4 218 rrcurveto
            165 -3 -98 163 -349 hhcurveto
            return
          </CharString>
          <CharString index="116">
            232 3 callgsubr
            return
          </CharString>
          <CharString index="117">
            hstemhm
            110 960 return
          </CharString>
          <CharString index="118">
            975 181 return
          </CharString>
          <CharString index="119">
            1696 return
          </CharString>
          <CharString index="120">
            -68 callsubr
            169 -21 hstemhm
            return
          </CharString>
          <CharString index="121">
            139 342 142 return
          </CharString>
          <CharString index="122">
            -52 callsubr
            -1 callsubr
            hvcurveto
            return
          </CharString>
          <CharString index="123">
            653 0 157 259 151 135 155 520 153 return
          </CharString>
          <CharString index="124">
            hlineto
            -18 -158 rlineto
            225 hlineto
            141 7 -26 -164 rlineto
            return
          </CharString>
          <CharString index="125">
            -132 0 167 1363 -20 return
          </CharString>
          <CharString index="126">
            -21 hstemhm
            126 1762 return
          </CharString>
          <CharString index="127">
            267 153 267 return
          </CharString>
          <CharString index="128">
            21 1 callgsubr
            return
          </CharString>
          <CharString index="129">
            291 -22 -769 -1408 rlineto
            512 567 rmoveto
            return
          </CharString>
          <CharString index="130">
            339 157 352 157 hstem
            96 903 vstem
            return
          </CharString>
          <CharString index="131">
            -102 -93 -15 -1 -93 hvcurveto
            -101 hlineto
            114 -666 rmoveto
            return
          </CharString>
          <CharString index="132">
            70 21 -21 520 156 722 148 -16 -20 return
          </CharString>
          <CharString index="133">
            hstemhm
            170 188 return
          </CharString>
          <CharString index="134">
            -324 21 -21 949 207 -13 -20 20 13 return
          </CharString>
          <CharString index="135">
            -64 -3 53 -55 63 hhcurveto
            endchar
          </CharString>
          <CharString index="136">
            -21 10 callsubr
            return
          </CharString>
          <CharString index="137">
            300 21 -21 694 150 686 -20 return
          </CharString>
          <CharString index="138">
            hlineto
            61 192 30 177 rlineto
            -190 hlineto
            return
          </CharString>
          <CharString index="139">
            134 -108 21 1743 135 hstemhm
            return
          </CharString>
          <CharString index="140">
            -15 -190 rlineto
            return
          </CharString>
          <CharString index="141">
            hstemhm
            89 203 return
          </CharString>
          <CharString index="142">
            127 391 return
          </CharString>
          <CharString index="143">
            -76 1251 return
          </CharString>
        <CharString name=".notdef">
          762 0 219 hstem
          228 229 960 227 vstem
          228 hmoveto
          1416 1416 -1416 hlineto
          230 -1053 rmoveto
          358 342 -359 363 123 125 357 -368 352 366 128 -124 -363 -358 363 -368 -122 -122 -362 368 -347 -368 rlineto
          endchar
        </CharString>
        <CharString name=".null">
          endchar
        </CharString>
        <CharString name="A">
          -50 callgsubr
          hstem
          36 callsubr
          vstem
          -99 callgsubr
          endchar
        </CharString>
        <CharString name="AE">
          16 callsubr
          -140 140 -122 122 -100 100 hstemhm
          -128 1823 hintmask 00000000
          hintmask 11110001
          85 hmoveto
          -36 callgsubr
          hintmask 11100011
          -14 -100 rlineto
          hintmask 11100101
          22 callsubr
          hintmask 11101001
          28 callgsubr
        </CharString>
        <CharString name="AEacute">
          16 callsubr
          -122 122 -100 100 149 -21 hstemhm
          -128 1823 -709 400 hintmask 0000001010000000
          1059 -71 callsubr
          hintmask 0000000000000000
          -901 -1658 rmoveto
          -36 callgsubr
          hintmask 1111000100000000
          -14 -100 rlineto
          hintmask 1110010100000000
          22 callsubr
          hintmask 1110100100000000
          28 callgsubr
        </CharString>
        <CharString name="Aacute">
          -50 callgsubr
          169 -21 33 callgsubr
          -426 400 hintmask 11101000
          -99 callgsubr
          hintmask 00010100
          -63 1046 -94 callgsubr
          endchar
        </CharString>
        <CharString name="Abreve">
          -50 callgsubr
          119 147 33 callgsubr
          -670 140 hintmask 11101000
          -99 callgsubr
          hintmask 00010100
          -81 1082 -106 callgsubr
          endchar
        </CharString>
        <CharString name="Acircumflex">
          -50 callgsubr
          167 -21 33 callgsubr
          -714 695 hintmask 11101000
          -99 callgsubr
          hintmask 00010100
          -347 1032 -95 callsubr
        </CharString>
        <CharString name="Adieresis">
          -50 callgsubr
          186 -11 callsubr
          -76 1251 -697 -1 callgsubr
          hintmask 11100100
          -99 callgsubr
          hintmask 00000000
          125 1149 rmoveto
          80 69 -31 callgsubr
          hintmask 00001001
          -51 callsubr
          hintmask 00010001
          4 callsubr
          hintmask 00001001
          -43 callgsubr
          hintmask 00001010
          63 2 -47 53 -77 hhcurveto
          -65 -75 -67 -77 -3 hvcurveto
          hintmask 00010010
          28 callsubr
        </CharString>
        <CharString name="Agrave">
          -50 callgsubr
          169 -21 33 callgsubr
          -684 400 hintmask 11101000
          -99 callgsubr
          hintmask 00010100
          -67 1046 -29 callgsubr
        </CharString>
        <CharString name="Amacron">
          -50 callgsubr
          219 149 33 callgsubr
          -653 514 hintmask 11101000
          -99 callgsubr
          hintmask 00010100
          -363 1182 -71 callgsubr
          endchar
        </CharString>
        <CharString name="Aogonek">
          155 35 callgsubr
          308 0 callgsubr
          983 -20 hstemhm
          670 259 -194 154 -126 409 hintmask 00000000
          hintmask 11110100
          -76 hmoveto
          211 hlineto
          182 396 rlineto
          594 hlineto
          66 -396 rlineto
          3 hlineto
          -77 -47 -168 -96 -138 vvcurveto
          -63 56 -91 137 vhcurveto
          hintmask 11110010
          116 87 58 36 42 hvcurveto
          -51 99 rlineto
          hintmask 11111000
          15 callsubr
          39 hlineto
          hintmask 11110100
          -286 1530 rlineto
          hintmask 11111000
          -219 hlineto
          -284 -983 rmoveto
          hintmask 11110010
          315 683 56 122 13 -116 115 -689 rlineto
          endchar
        </CharString>
        <CharString name="Aring">
          155 21 0 callgsubr
          1345 108 hstemhm
          494 139 342 200 -198 140 hintmask 00000000
          hintmask 11110100
          -76 hmoveto
          211 hlineto
          182 396 rlineto
          594 hlineto
          66 -396 rlineto
          hintmask 11111000
          -3 callgsubr
          -277 1480 rlineto
          hintmask 11110100
          125 31 94 83 141 vvcurveto
          167 -108 98 -168 -161 -186 -90 -185 -119 55 -82 100 -36 vhcurveto
          hintmask 11111000
          137 85 rmoveto
          -88 -65 66 80 136 102 37 90 90 60 -59 -81 -147 -87 -32 -102 hvcurveto
          -400 -1026 rmoveto
          315 683 56 122 13 -116 115 -689 rlineto
          endchar
        </CharString>
        <CharString name="Atilde">
          -50 callgsubr
          158 15 callgsubr
          -76 1251 -745 783 hintmask 11100100
          -99 callgsubr
          hintmask 00000000
          -368 1170 -54 callgsubr
          hintmask 00001010
          -73 callgsubr
          hintmask 00010010
          -76 callsubr
          endchar
        </CharString>
        <CharString name="B">
          16 callgsubr
          hstemhm
          923 211 -190 198 hintmask 00000000
          hintmask 01110100
          110 hmoveto
          92 hlineto
          71 107 -14 77 hhcurveto
          hintmask 10110100
          7 callsubr
          hintmask 10110010
          8 callsubr
          hintmask 10101100
          24 callsubr
          hintmask 10110010
          -6 callgsubr
          hintmask 10101100
          -53 -66 -2 3 -51 hvcurveto
          hintmask 10110100
          -25 callsubr
        </CharString>
        <CharString name="C">
          -12 callgsubr
          hstem
          107 202 vstem
          610 -16 -98 callsubr
          endchar
        </CharString>
        <CharString name="CR">
          endchar
        </CharString>
        <CharString name="Cacute">
          -12 callgsubr
          133 -21 hstemhm
          107 202 452 400 hintmask 11010000
          610 -16 -98 callsubr
          hintmask 00101000
          224 1609 -94 callgsubr
          endchar
        </CharString>
        <CharString name="Ccaron">
          -12 callgsubr
          68 386 hstemhm
          107 202 164 734 hintmask 11010000
          610 -16 -98 callsubr
          hintmask 00101000
          106 1630 3 callsubr
        </CharString>
        <CharString name="Ccedilla">
          31 -462 165 285 154 1238 166 hstem
          107 202 252 171 vstem
          331 -283 rmoveto
          -67 callsubr
          61 -9 51 -14 39 hvcurveto
          197 14 95 56 34 26 -30 166 rcurveline
          -32 -39 -141 -76 -179 hhcurveto
          -229 -103 224 282 -5 hvcurveto
          286 -5 118 446 388 hhcurveto
          163 68 -48 -17 31 hvcurveto
          70 164 -54 18 rlineto
          24 -69 -72 25 -130 hhcurveto
          -406 -314 -371 -548 10 hvcurveto
          5 -296 113 -317 336 -28 rrcurveto
          1 -33 -1 -41 -29 -44 callgsubr
          endchar
        </CharString>
        <CharString name="Ccircumflex">
          -12 callgsubr
          131 -21 hstemhm
          107 202 164 695 hintmask 11010000
          610 -16 -98 callsubr
          hintmask 00101000
          -60 1595 -95 callsubr
        </CharString>
        <CharString name="Cdotaccent">
          -12 callgsubr
          171 -21 hstemhm
          107 202 388 265 hintmask 00101000
          810 12 callsubr
          -97 callsubr
          hintmask 11010000
          -200 -1712 -98 callsubr
          endchar
        </CharString>
        <CharString name="D">
          -6 callsubr
          hstemhm
          1093 205 hintmask 00000000
          hintmask 01101000
          110 hmoveto
          101 hlineto
          56 97 -5 -4 45 hvcurveto
          hintmask 10101000
          -70 callsubr
          hintmask 10011000
          -17 callgsubr
          25 -1367 rmoveto
          hintmask 10101000
          154 1218 -70 callgsubr
          hintmask 10011000
          -4 callsubr
        </CharString>
        <CharString name="DC1">
          endchar
        </CharString>
        <CharString name="DC2">
          endchar
        </CharString>
        <CharString name="DC3">
          endchar
        </CharString>
        <CharString name="DC4">
          endchar
        </CharString>
        <CharString name="DEL">
          endchar
        </CharString>
        <CharString name="DLE">
          endchar
        </CharString>
        <CharString name="Dcaron">
          -6 callsubr
          104 386 hstemhm
          408 734 -49 205 hintmask 00001100
          651 1614 -82 callgsubr
          hintmask 00000000
          -298 -1912 rmoveto
          101 hlineto
          56 97 -5 -4 45 hvcurveto
          hintmask 01100010
          -70 callsubr
          hintmask 10100010
          -17 callgsubr
          25 -1367 rmoveto
          hintmask 10010010
          154 1218 -70 callgsubr
          hintmask 10100010
          -4 callsubr
        </CharString>
        <CharString name="Dcroat">
          -83 callgsubr
        </CharString>
        <CharString name="Delta">
          -40 callsubr
        </CharString>
        <CharString name="E">
          28 0 -60 callsubr
          hstem
          110 960 vstem
          110 hmoveto
          902 -98 callgsubr
          -767 hlineto
          endchar
        </CharString>
        <CharString name="Eacute">
          28 0 -60 callsubr
          149 29 callsubr
          -413 400 hintmask 00010100
          730 -71 callsubr
          hintmask 11101000
          -547 -1658 rmoveto
          902 -98 callgsubr
          -767 hlineto
          endchar
        </CharString>
        <CharString name="Ebreve">
          28 0 -60 callsubr
          99 147 10 callsubr
          -657 140 hintmask 00010100
          712 -88 callgsubr
          hintmask 11101000
          -602 -1629 rmoveto
          902 -98 callgsubr
          -767 hlineto
          endchar
        </CharString>
        <CharString name="Ecaron">
          28 0 -60 callsubr
          84 386 10 callsubr
          -701 734 hintmask 00010100
          612 1614 -82 callgsubr
          hintmask 11101000
          -259 -1912 rmoveto
          902 -98 callgsubr
          -767 hlineto
          endchar
        </CharString>
        <CharString name="Ecircumflex">
          28 0 -60 callsubr
          147 29 callsubr
          -701 695 hintmask 11101000
          110 hmoveto
          902 -98 callgsubr
          -767 hlineto
          hintmask 00010100
          143 49 -95 callsubr
        </CharString>
        <CharString name="Edieresis">
          28 0 -60 callsubr
          166 263 -242 29 callsubr
          -684 -1 callgsubr
          hintmask 00000000
          hintmask 00001001
          918 12 callsubr
          rmoveto
          80 69 -31 callgsubr
          hintmask 00010001
          -51 callsubr
          hintmask 00001001
          4 callsubr
          hintmask 00001010
          -43 callgsubr
          hintmask 00010010
          63 2 -47 53 -77 hhcurveto
          -65 -75 -67 -77 -3 hvcurveto
          hintmask 00001010
          -64 -3 53 -55 63 hhcurveto
          hintmask 11100100
          -389 -1696 rmoveto
          902 -98 callgsubr
          -767 hlineto
          endchar
        </CharString>
        <CharString name="Edotaccent">
          28 0 -60 callsubr
          187 29 callsubr
          -477 265 hintmask 00010100
          706 12 callsubr
          -97 callsubr
          hintmask 11101000
          -596 -1696 rmoveto
          902 -98 callgsubr
          -767 hlineto
          endchar
        </CharString>
        <CharString name="Egrave">
          28 0 -60 callsubr
          149 29 callsubr
          -671 400 hintmask 00010100
          726 1593 -78 callsubr
          hintmask 11101000
          -616 -1593 rmoveto
          902 -98 callgsubr
          -767 hlineto
          endchar
        </CharString>
        <CharString name="Emacron">
          28 0 -60 callsubr
          199 149 10 callsubr
          -640 514 hintmask 00010100
          430 -2 callgsubr
          hintmask 11101000
          -324 -1878 rmoveto
          902 -98 callgsubr
          -767 hlineto
          endchar
        </CharString>
        <CharString name="Eng">
          406 -15 callgsubr
          110 1232 vstem
          110 hmoveto
          185 hlineto
          126 1009 27 298 53 -232 445 -1051 -47 -108 -101 -100 -133 -43 rlinecurve
          35 -88 201 34 161 87 83 194 rlinecurve
          4 hlineto
          193 1530 rlineto
          -188 hlineto
          -123 -1020 -19 -249 -63 207 -440 1062 rlineto
          -206 hlineto
          endchar
        </CharString>
        <CharString name="Eogonek">
          28 35 callgsubr
          287 -60 callsubr
          hstem
          561 194 193 118 vstem
          110 hmoveto
          696 hlineto
          -74 callgsubr
          -1 callsubr
          hvcurveto
          50 -98 callgsubr
          -767 hlineto
          endchar
        </CharString>
        <CharString name="Eth">
          -83 callgsubr
        </CharString>
        <CharString name="Euro">
          279 -16 147 423 141 199 140 364 148 hstemhm
          25 1219 -1020 212 hintmask 00000000
          hintmask 11111000
          25 554 rmoveto
          202 hlineto
          -287 24 135 -283 307 hhcurveto
          206 172 47 80 71 hvcurveto
          -56 136 rlineto
          -62 -89 -96 -54 -179 hhcurveto
          -193 -82 167 256 -11 hvcurveto
          527 hlineto
          19 141 rlineto
          hintmask 11110100
          -546 hlineto
          2 71 7 66 10 62 rrcurveto
          553 hlineto
          19 140 rlineto
          -542 hlineto
          229 66 130 135 195 hhcurveto
          169 108 -37 -28 27 hvcurveto
          64 159 rlineto
          23 -72 -86 31 -156 hhcurveto
          -299 -242 -194 -318 -106 hvcurveto
          -193 hlineto
          -20 -140 rlineto
          176 hlineto
          -12 -63 -8 -67 -2 -69 rrcurveto
          -179 hlineto
          endchar
        </CharString>
        <CharString name="F">
          32 callgsubr
          hstem
          110 983 vstem
          110 hmoveto
          -14 callgsubr
        </CharString>
        <CharString name="G">
          -19 callgsubr
          hstem
          109 201 vstem
          608 -16 -101 callsubr
          endchar
        </CharString>
        <CharString name="Gbreve">
          -19 callgsubr
          83 147 hstemhm
          109 201 239 140 hintmask 00010100
          848 -88 callgsubr
          hintmask 11101000
          -240 -1645 -101 callsubr
          endchar
        </CharString>
        <CharString name="Gcircumflex">
          -19 callgsubr
          131 -21 hstemhm
          109 201 195 695 hintmask 11101000
          608 -16 -101 callsubr
          hintmask 00010100
          -26 1595 -95 callsubr
        </CharString>
        <CharString name="Gcommaaccent">
          230 -18 callgsubr
          494 155 431 159 657 160 hstemhm
          109 201 277 191 hintmask 11000010
          645 -51 -104 callsubr
          hintmask 00111100
          -37 35 -101 callsubr
          endchar
        </CharString>
        <CharString name="Gdotaccent">
          -19 callgsubr
          171 -21 hstemhm
          109 201 419 265 hintmask 00010100
          842 12 callsubr
          -97 callsubr
          hintmask 11101000
          -234 -1712 -101 callsubr
          endchar
        </CharString>
        <CharString name="H">
          30 callsubr
          hstem
          110 1242 vstem
          -30 callsubr
          endchar
        </CharString>
        <CharString name="HT">
          endchar
        </CharString>
        <CharString name="Hbar">
          300 21 -21 592 150 256 150 382 -20 hstem
          52 1463 vstem
          21 callgsubr
          74 592 rlineto
          653 hlineto
          -74 -592 rlineto
          -3 callgsubr
          126 998 rlineto
          216 hlineto
          14 150 rlineto
          -211 hlineto
          48 382 -22 callsubr
          -48 -382 rlineto
          -653 hlineto
          48 382 -22 callsubr
          -48 -382 rlineto
          -189 hlineto
          -14 -150 rlineto
          184 hlineto
          165 -256 rmoveto
          33 256 rlineto
          653 hlineto
          -33 -256 rlineto
          endchar
        </CharString>
        <CharString name="Hcircumflex">
          30 callsubr
          167 -21 hstemhm
          110 1242 -851 695 hintmask 11101000
          -30 callsubr
          hintmask 00010100
          275 49 -95 callsubr
        </CharString>
        <CharString name="I">
          -530 -15 callgsubr
          35 callsubr
          vstem
          -75 callgsubr
          endchar
        </CharString>
        <CharString name="IJ">
          52 -68 callsubr
          hstemhm
          35 callsubr
          -108 687 hintmask 11100000
          -75 callgsubr
          hintmask 01010000
          391 -1444 -65 callsubr
          endchar
        </CharString>
        <CharString name="Iacute">
          -530 13 callsubr
          35 callsubr
          -130 400 hintmask 11010000
          -75 callgsubr
          hintmask 00101000
          141 63 -94 callgsubr
          endchar
        </CharString>
        <CharString name="Ibreve">
          -530 -68 callsubr
          119 147 hstemhm
          35 callsubr
          -374 140 hintmask 11010000
          -75 callgsubr
          hintmask 00101000
          123 99 -106 callgsubr
          endchar
        </CharString>
        <CharString name="Icircumflex">
          -530 -68 callsubr
          167 -21 hstemhm
          100 695 -668 391 hintmask 11001000
          -75 callgsubr
          hintmask 00110000
          -143 49 -95 callsubr
        </CharString>
        <CharString name="Idieresis">
          -530 -68 callsubr
          186 -11 callsubr
          117 265 -255 391 16 267 hintmask 11000100
          -75 callgsubr
          hintmask 00000000
          329 166 rmoveto
          80 69 -31 callgsubr
          hintmask 00010010
          -51 callsubr
          hintmask 00100010
          4 callsubr
          hintmask 00010010
          -43 callgsubr
          hintmask 00011000
          63 2 -47 53 -77 hhcurveto
          -65 -75 -67 -77 -3 hvcurveto
          hintmask 00101000
          28 callsubr
        </CharString>
        <CharString name="Idotaccent">
          -530 -68 callsubr
          207 -21 hstemhm
          35 callsubr
          -194 265 hintmask 11010000
          -75 callgsubr
          hintmask 00101000
          117 -8 callgsubr
        </CharString>
        <CharString name="Igrave">
          -530 13 callsubr
          35 callsubr
          -388 400 hintmask 11010000
          -75 callgsubr
          hintmask 00101000
          137 63 -29 callgsubr
        </CharString>
        <CharString name="Imacron">
          -530 -68 callsubr
          219 149 hstemhm
          35 callsubr
          -357 514 hintmask 11010000
          -75 callgsubr
          hintmask 00101000
          -159 199 -71 callgsubr
          endchar
        </CharString>
        <CharString name="Iogonek">
          -530 35 callgsubr
          308 -58 callsubr
          hstem
          -118 194 vstem
          127 hmoveto
          -74 callgsubr
          -1 callsubr
          hvcurveto
          42 hlineto
          193 1530 -22 callsubr
          endchar
        </CharString>
        <CharString name="Itilde">
          -530 -68 callsubr
          158 15 callgsubr
          69 783 -725 391 hintmask 11000100
          -75 callgsubr
          hintmask 00000000
          -164 187 -54 callgsubr
          hintmask 00011000
          -73 callgsubr
          hintmask 00101000
          -76 callsubr
          endchar
        </CharString>
        <CharString name="J">
          -528 1530 -20 hstem
          -170 687 vstem
          131 86 -65 callsubr
          endchar
        </CharString>
        <CharString name="Jcircumflex">
          -528 1530 -20 167 -21 hstemhm
          -170 687 -423 695 hintmask 10100000
          131 86 -65 callsubr
          hintmask 01010000
          40 1493 -95 callsubr
        </CharString>
        <CharString name="K">
          135 -15 callgsubr
          110 1197 vstem
          110 hmoveto
          -55 callsubr
        </CharString>
        <CharString name="Kcommaaccent">
          135 -537 -21 71 -21 529 -58 callsubr
          hstemhm
          110 1197 -762 191 hintmask 11000100
          603 -28 callgsubr
          -493 49 rmoveto
          -55 callsubr
        </CharString>
        <CharString name="L">
          18 callsubr
          hstem
          110 789 vstem
          110 hmoveto
          9 callgsubr
        </CharString>
        <CharString name="LF">
          endchar
        </CharString>
        <CharString name="Lacute">
          18 callsubr
          171 -21 hstemhm
          110 789 -514 400 hintmask 00101000
          458 1595 -94 callgsubr
          hintmask 11010000
          -275 -1660 8 callgsubr
        </CharString>
        <CharString name="Lcaron">
          -132 0 167 838 645 -120 -20 hstemhm
          110 789 -77 183 hintmask 10110000
          110 hmoveto
          -52 callgsubr
          hintmask 01001000
          584 -525 -81 callgsubr
        </CharString>
        <CharString name="Lcommaaccent">
          -132 -537 -21 71 -21 508 167 1363 -20 hstemhm
          110 789 -455 191 hintmask 11000100
          502 -28 callgsubr
          -392 49 8 callgsubr
        </CharString>
        <CharString name="Ldot">
          -14 0 167 605 -21 779 -20 hstemhm
          110 789 -136 276 hintmask 10110000
          110 hmoveto
          -52 callgsubr
          hintmask 01001000
          460 -667 -75 callsubr
          endchar
        </CharString>
        <CharString name="Lslash">
          18 callsubr
          hstem
          -51 950 vstem
          110 hmoveto
          767 hlineto
          22 170 -570 -5 61 488 419 177 -35 127 -365 -158 92 731 -22 callsubr
          -104 -821 -250 -108 36 -118 196 82 rlineto
          endchar
        </CharString>
        <CharString name="M">
          24 callgsubr
          hstemhm
          48 1574 -175 157 hintmask 00000000
          hintmask 01011000
          48 hmoveto
          200 hlineto
          238 1033 rlineto
          hintmask 10101000
          13 callgsubr
          hintmask 01100100
          -28 callsubr
        </CharString>
        <CharString name="N">
          290 -15 callgsubr
          110 1232 vstem
          110 hmoveto
          -90 callsubr
          endchar
        </CharString>
        <CharString name="Nacute">
          290 13 callsubr
          110 1232 -532 400 hintmask 00101000
          883 -71 callsubr
          hintmask 11010000
          -700 -1658 rmoveto
          -90 callsubr
          endchar
        </CharString>
        <CharString name="Ncaron">
          290 -68 callsubr
          104 386 hstemhm
          110 1232 -820 734 hintmask 00101000
          765 1614 -82 callgsubr
          hintmask 11010000
          -412 -1912 rmoveto
          -90 callsubr
          endchar
        </CharString>
        <CharString name="Ncommaaccent">
          290 -18 callgsubr
          531 -58 callsubr
          hstemhm
          110 1232 -774 191 hintmask 11000100
          626 -51 -26 callgsubr
          -516 51 rmoveto
          -90 callsubr
          endchar
        </CharString>
        <CharString name="Ntilde">
          290 -68 callsubr
          158 15 callgsubr
          110 1232 -851 783 hintmask 00000000
          hintmask 00010100
          578 1717 -54 callgsubr
          hintmask 00100100
          -73 callgsubr
          hintmask 00010100
          -76 callsubr
          hintmask 11001000
          -381 -1801 rmoveto
          -90 callsubr
          endchar
        </CharString>
        <CharString name="O">
          -57 callgsubr
          hstem
          108 206 785 206 vstem
          -63 callgsubr
          endchar
        </CharString>
        <CharString name="OE">
          996 -16 152 -136 -60 callsubr
          -141 157 0 callsubr
          hintmask 00000000
          hintmask 10110100
          599 -16 rmoveto
          214 175 106 172 120 hvcurveto
          hintmask 01110100
          -33 -262 -16 callgsubr
          -767 hlineto
          -37 -291 rlineto
          hintmask 01101100
          183 -67 -135 124 -215 hhcurveto
          -412 -304 -406 -530 10 hvcurveto
          hintmask 10110100
          -343 6 160 -283 325 hhcurveto
          32 152 rmoveto
          -211 -99 159 353 -7 hvcurveto
          hintmask 01101100
          380 -7 192 361 283 hhcurveto
          211 100 -153 -353 6 hvcurveto
          hintmask 10110100
          -398 7 -191 -349 -284 hhcurveto
          endchar
        </CharString>
        <CharString name="Oacute">
          -57 callgsubr
          133 -21 0 callsubr
          468 400 -83 206 hintmask 00101000
          855 -71 callsubr
          hintmask 11010100
          -183 -1674 -105 callsubr
          endchar
        </CharString>
        <CharString name="Obreve">
          -57 callgsubr
          83 147 0 callsubr
          224 140 421 206 hintmask 00101000
          837 -88 callgsubr
          hintmask 11010100
          -238 -1645 -105 callsubr
          endchar
        </CharString>
        <CharString name="Ocircumflex">
          -57 callgsubr
          131 -21 0 callsubr
          180 695 -90 -67 callgsubr
          -60 1443 -95 callsubr
        </CharString>
        <CharString name="Odieresis">
          -57 callgsubr
          150 -11 callsubr
          108 206 197 -1 callgsubr
          -96 206 hintmask 00000000
          hintmask 00010010
          1043 -74 callsubr
          hintmask 11001001
          -25 -1712 -105 callsubr
          endchar
        </CharString>
        <CharString name="Ograve">
          -57 callgsubr
          133 -21 0 callsubr
          210 400 175 206 hintmask 00101000
          851 1593 -78 callsubr
          hintmask 11010100
          -252 -1609 -105 callsubr
          endchar
        </CharString>
        <CharString name="Ohungarumlaut">
          -57 callgsubr
          14 440 0 callsubr
          235 862 -312 -67 callgsubr
          407 1424 -64 callsubr
        </CharString>
        <CharString name="Omacron">
          -57 callgsubr
          183 149 0 callsubr
          241 514 30 206 hintmask 00101000
          555 -2 callgsubr
          hintmask 11010100
          40 -1894 -105 callsubr
          endchar
        </CharString>
        <CharString name="Omega">
          -77 callgsubr
        </CharString>
        <CharString name="Oslash">
          -57 callgsubr
          hstem
          108 206 785 206 vstem
          57 -83 rmoveto
          89 -49 151 228 rlineto
          -71 77 100 -41 125 hhcurveto
          424 291 416 521 -9 hvcurveto
          -3 185 -49 167 -95 115 155 233 rcurveline
          -89 49 -140 -210 rlineto
          54 -72 -90 32 -108 hhcurveto
          -412 -304 -406 -530 10 hvcurveto
          3 -168 40 -154 78 -113 rrcurveto
          127 171 rmoveto
          -26 77 -14 101 -2 124 rrcurveto
          380 -7 192 361 283 hhcurveto
          82 65 -23 -49 49 hvcurveto
          -569 -1076 rmoveto
          631 984 37 -81 19 -113 3 -148 rlinecurve
          -398 7 -191 -349 -284 hhcurveto
          -97 -74 34 71 -51 hvcurveto
          endchar
        </CharString>
        <CharString name="Otilde">
          -57 callgsubr
          122 15 callgsubr
          108 206 149 783 -147 206 hintmask 00000000
          hintmask 00010100
          550 1717 -54 callgsubr
          hintmask 00100100
          -73 callgsubr
          hintmask 00010100
          -76 callsubr
          hintmask 11001010
          136 -1817 -105 callsubr
          endchar
        </CharString>
        <CharString name="P">
          25 callsubr
          hstemhm
          970 201 hintmask 00000000
          hintmask 11101000
          21 callgsubr
          67 530 -27 callgsubr
          124 -289 hhcurveto
          hintmask 11011000
          25 callgsubr
          hintmask 11101000
          86 687 rlineto
          12 58 90 -24 callgsubr
          rrcurveto
          hintmask 11011000
          23 callgsubr
        </CharString>
        <CharString name="Q">
          268 -360 184 172 140 -130 -21 32 -21 1393 157 0 callsubr
          260 145 380 206 hintmask 00000000
          hintmask 10101111
          577 -15 rmoveto
          -233 -29 169 -112 191 hhcurveto
          112 148 24 34 49 hvcurveto
          154 vlineto
          -20 -58 -92 -8 -43 hhcurveto
          hintmask 10011111
          -141 -156 9 163 -8 hvcurveto
          358 70 236 385 -8 470 rrcurveto
          343 -6 -160 282 -325 hhcurveto
          -412 -304 -406 -530 10 hvcurveto
          hintmask 10101111
          6 -336 153 -277 310 -12 rrcurveto
          hintmask 11001111
          54 151 rmoveto
          -211 -99 159 353 -7 hvcurveto
          380 -7 192 361 283 hhcurveto
          211 100 -153 -353 6 hvcurveto
          -398 7 -191 -349 -284 hhcurveto
          endchar
        </CharString>
        <CharString name="R">
          160 20 -20 callgsubr
          hstemhm
          967 215 hintmask 00000000
          hintmask 01110100
          108 hmoveto
          -50 callsubr
          hintmask 10110100
          -78 callgsubr
          hintmask 01101100
          -20 callsubr
          hintmask 01110100
          -59 callgsubr
          hintmask 01101100
          20 callgsubr
          endchar
        </CharString>
        <CharString name="RS">
          endchar
        </CharString>
        <CharString name="Racute">
          160 20 -20 callgsubr
          169 -21 hstemhm
          710 400 -143 215 hintmask 00000000
          hintmask 01110001
          108 hmoveto
          -50 callsubr
          hintmask 10110001
          -78 callgsubr
          hintmask 01101001
          -20 callsubr
          hintmask 01110001
          -59 callgsubr
          hintmask 01101001
          20 callgsubr
          hintmask 00000110
          375 781 -94 callgsubr
          endchar
        </CharString>
        <CharString name="Rcaron">
          160 20 -20 callgsubr
          104 386 hstemhm
          422 734 -189 215 hintmask 00000110
          665 1614 -82 callgsubr
          hintmask 00000000
          -314 -1912 rmoveto
          -50 callsubr
          hintmask 01110001
          -78 callgsubr
          hintmask 10110001
          -20 callsubr
          hintmask 01101001
          -59 callgsubr
          hintmask 01110001
          20 callgsubr
          endchar
        </CharString>
        <CharString name="Rcommaaccent">
          160 -18 callgsubr
          530 -20 callgsubr
          hstemhm
          557 191 219 215 hintmask 1100000100000000
          615 -51 -104 callsubr
          hintmask 0000000000000000
          -507 51 rmoveto
          -50 callsubr
          hintmask 0001110010000000
          -78 callgsubr
          hintmask 0010110010000000
          -20 callsubr
          hintmask 0001101010000000
          -59 callgsubr
          hintmask 0001110010000000
          20 callgsubr
          endchar
        </CharString>
        <CharString name="S">
          -12 callsubr
          hstem
          183 198 334 206 vstem
          29 75 -72 callsubr
        </CharString>
        <CharString name="Sacute">
          -12 callsubr
          133 -21 26 callgsubr
          251 400 -317 206 hintmask 11010100
          29 75 -104 callgsubr
          hintmask 00101000
          621 1358 -94 callgsubr
          endchar
        </CharString>
        <CharString name="Scaron">
          -12 callsubr
          68 386 26 callgsubr
          -37 734 -363 206 hintmask 11010100
          29 75 -104 callgsubr
          hintmask 00101000
          503 1379 3 callsubr
        </CharString>
        <CharString name="Scedilla">
          -66 -464 165 284 154 -128 -21 1405 151 26 callgsubr
          -30 171 193 206 hintmask 00000000
          hintmask 11010110
          29 75 rmoveto
          40 -34 134 -48 148 -8 rrcurveto
          1 -34 -1 -40 -30 -44 callgsubr
          -67 callsubr
          hvcurveto
          hintmask 10110110
          63 -9 53 -15 39 vhcurveto
          250 30 177 141 -4 260 -47 callgsubr
          rrcurveto
          hintmask 11011010
          -171 116 -70 69 7 160 rrcurveto
          171 8 153 35 119 hhcurveto
          76 128 -20 -65 63 hvcurveto
          63 151 rlineto
          37 -51 -106 48 -186 hhcurveto
          -271 -199 -150 -259 5 hvcurveto
          4 -222 158 -128 153 -101 rrcurveto
          165 -109 52 -92 -112 vvcurveto
          -175 -159 -59 -159 -126 -150 55 41 -37 vhcurveto
          endchar
        </CharString>
        <CharString name="Scircumflex">
          -12 callsubr
          131 -21 26 callgsubr
          -37 695 -324 206 hintmask 11010100
          29 75 -104 callgsubr
          hintmask 00101000
          337 1344 -95 callsubr
        </CharString>
        <CharString name="T">
          12 21 29 callgsubr
          hstem
          129 1066 vstem
          381 hmoveto
          198 -60 callgsubr
          rlineto
          endchar
        </CharString>
        <CharString name="Tbar">
          12 21 -21 722 130 526 151 hstem
          129 1066 vstem
          381 hmoveto
          -3 callgsubr
          91 722 rlineto
          272 hlineto
          16 130 rlineto
          -271 hlineto
          67 532 420 -11 21 157 rlineto
          -1044 hlineto
          -22 -157 427 11 -67 -532 rlineto
          -270 hlineto
          -16 -130 rlineto
          269 hlineto
          endchar
        </CharString>
        <CharString name="Tcaron">
          12 21 29 callgsubr
          85 386 hstemhm
          129 1066 -820 734 hintmask 00101000
          618 1614 -82 callgsubr
          hintmask 11010000
          6 -1912 rmoveto
          198 -60 callgsubr
          rlineto
          endchar
        </CharString>
        <CharString name="Thorn">
          100 21 -21 270 156 722 149 233 -20 hstem
          938 201 vstem
          21 callgsubr
          35 280 -27 callgsubr
          125 -289 hhcurveto
          -78 -67 -9 -5 -68 hvcurveto
          32 247 -22 callsubr
          60 -1090 rmoveto
          87 687 rlineto
          12 58 89 -24 callgsubr
          23 callgsubr
        </CharString>
        <CharString name="U">
          -47 callsubr
          hstem
          146 203 vstem
          -84 callsubr
          endchar
        </CharString>
        <CharString name="US">
          endchar
        </CharString>
        <CharString name="Uacute">
          -47 callsubr
          169 -21 -7 callsubr
          420 400 hintmask 00101000
          842 -71 callsubr
          hintmask 11010000
          -623 -1230 -106 callsubr
          endchar
        </CharString>
        <CharString name="Ubreve">
          -47 callsubr
          119 147 -7 callsubr
          176 140 hintmask 00101000
          824 -88 callgsubr
          hintmask 11010000
          -678 -1201 -106 callsubr
          endchar
        </CharString>
        <CharString name="Ucircumflex">
          -47 callsubr
          167 -21 -7 callsubr
          132 695 hintmask 11010000
          -84 callsubr
          hintmask 00101000
          412 1151 -95 callsubr
        </CharString>
        <CharString name="Udieresis">
          -47 callsubr
          186 -11 callsubr
          146 203 149 -1 callgsubr
          hintmask 00000000
          hintmask 00010010
          1030 -74 callsubr
          hintmask 11001000
          -465 -1268 -106 callsubr
          endchar
        </CharString>
        <CharString name="Ugrave">
          -47 callsubr
          169 -21 -7 callsubr
          162 400 hintmask 00101000
          838 1593 -78 callsubr
          hintmask 11010000
          -692 -1165 -106 callsubr
          endchar
        </CharString>
        <CharString name="Uhungarumlaut">
          -47 callsubr
          50 440 -7 callsubr
          187 862 hintmask 11010000
          -84 callsubr
          hintmask 00101000
          879 1132 -64 callsubr
        </CharString>
        <CharString name="Umacron">
          -47 callsubr
          219 149 -7 callsubr
          193 514 hintmask 00101000
          542 -2 callgsubr
          hintmask 11010000
          -400 -1450 -106 callsubr
          endchar
        </CharString>
        <CharString name="Uogonek">
          253 35 callgsubr
          271 161 1385 -20 -7 callsubr
          -72 378 -194 14 hintmask 00000000
          hintmask 11110100
          146 428 rmoveto
          -276 5 153 -168 298 hhcurveto
          29 28 2 2 27 hvcurveto
          -82 -51 -143 -100 -118 vvcurveto
          -63 56 -91 137 116 87 58 36 42 vhcurveto
          -51 99 rlineto
          hintmask 11101000
          -52 callsubr
          48 99 107 87 87 hvcurveto
          199 73 123 184 45 349 114 903 rcurveline
          -193 hlineto
          -112 -886 rlineto
          -358 -45 -128 -141 -214 hhcurveto
          hintmask 11110100
          -175 -102 96 195 -4 hvcurveto
          -1 57 5 62 8 73 114 902 rcurveline
          hintmask 11101000
          -37 callsubr
          hintmask 11110100
          -118 -937 -6 -59 -8 -54 1 -52 rlinecurve
          endchar
        </CharString>
        <CharString name="Uring">
          253 -16 161 1322 106 -43 -20 382 108 -7 callsubr
          165 14 callsubr
          hintmask 10101000
          -84 callsubr
          hintmask 01010110
          655 1039 -89 callsubr
          endchar
        </CharString>
        <CharString name="Utilde">
          -47 callsubr
          158 15 callgsubr
          146 203 101 783 hintmask 00000000
          hintmask 00010100
          537 1717 -54 callgsubr
          hintmask 00100100
          -73 callgsubr
          hintmask 00010100
          -76 callsubr
          hintmask 11001000
          -304 -1373 -106 callsubr
          endchar
        </CharString>
        <CharString name="V">
          59 -15 callgsubr
          128 1158 vstem
          380 hmoveto
          209 hlineto
          697 1530 rlineto
          -210 hlineto
          -476 -1101 -86 -222 -25 222 -163 1101 -22 callsubr
          endchar
        </CharString>
        <CharString name="W">
          -2 callsubr
          hstem
          126 1762 vstem
          358 -10 -94 callsubr
          endchar
        </CharString>
        <CharString name="Wacute">
          -2 callsubr
          169 19 callsubr
          -888 400 hintmask 00101000
          1073 -71 callsubr
          hintmask 11010000
          -642 -1668 -94 callsubr
          endchar
        </CharString>
        <CharString name="Wcircumflex">
          -2 callsubr
          167 19 callsubr
          -1176 695 hintmask 11010000
          358 -10 -94 callsubr
          hintmask 00101000
          663 49 -95 callsubr
        </CharString>
        <CharString name="Wdieresis">
          -2 callsubr
          186 263 -242 19 callsubr
          -1159 -1 callgsubr
          hintmask 00000000
          hintmask 00010010
          1261 -74 callsubr
          hintmask 11001000
          -484 -1706 -94 callsubr
          endchar
        </CharString>
        <CharString name="Wgrave">
          -2 callsubr
          169 19 callsubr
          -1146 400 hintmask 00101000
          1069 1593 -78 callsubr
          hintmask 11010000
          -711 -1603 -94 callsubr
          endchar
        </CharString>
        <CharString name="X">
          47 -15 callgsubr
          -59 1300 vstem
          -59 hmoveto
          240 hlineto
          394 620 248 -620 rlineto
          228 hlineto
          -347 753 537 777 rlineto
          -224 hlineto
          -389 -598 -229 598 rlineto
          -218 hlineto
          318 -737 rlineto
          endchar
        </CharString>
        <CharString name="Y">
          -27 -15 callgsubr
          83 1154 vstem
          -80 callgsubr
          endchar
        </CharString>
        <CharString name="Yacute">
          -27 13 callsubr
          83 1154 -598 400 hintmask 11010000
          -80 callgsubr
          hintmask 00101000
          256 1003 -94 callgsubr
          endchar
        </CharString>
        <CharString name="Ycircumflex">
          -27 -68 callsubr
          167 -21 hstemhm
          83 1154 -886 695 hintmask 11010000
          -80 callgsubr
          hintmask 00101000
          -28 989 -95 callsubr
        </CharString>
        <CharString name="Ydieresis">
          -27 -68 callsubr
          186 -11 callsubr
          83 1154 -869 -1 callgsubr
          hintmask 11001000
          -80 callgsubr
          hintmask 00000000
          444 1106 rmoveto
          80 69 -31 callgsubr
          hintmask 00010010
          -51 callsubr
          hintmask 00100010
          4 callsubr
          hintmask 00010010
          -43 callgsubr
          hintmask 00010100
          63 2 -47 53 -77 hhcurveto
          -65 -75 -67 -77 -3 hvcurveto
          hintmask 00100100
          28 callsubr
        </CharString>
        <CharString name="Ygrave">
          -27 13 callsubr
          83 1154 -856 400 hintmask 11010000
          -80 callgsubr
          hintmask 00101000
          252 1003 -29 callgsubr
        </CharString>
        <CharString name="Z">
          -7 callgsubr
          hstemhm
          15 1168 hintmask 00000000
          hintmask 11010000
          42 hmoveto
          -23 callgsubr
          hintmask 10110000
          780 1141 rlineto
          hintmask 11010000
          -48 callgsubr
          endchar
        </CharString>
        <CharString name="Zacute">
          -7 callgsubr
          149 -21 hstemhm
          15 1168 -478 400 hintmask 00000000
          hintmask 11001000
          42 hmoveto
          -23 callgsubr
          hintmask 10101000
          780 1141 rlineto
          hintmask 11001000
          -48 callgsubr
          hintmask 00010100
          763 1504 -94 callgsubr
          endchar
        </CharString>
        <CharString name="Zcaron">
          -7 callgsubr
          84 386 hstemhm
          15 1168 -766 734 hintmask 00010100
          660 1614 -82 callgsubr
          hintmask 00000000
          -375 -1912 -39 callsubr
        </CharString>
        <CharString name="Zdotaccent">
          -7 callgsubr
          187 -21 hstemhm
          15 1168 -542 265 hintmask 00010100
          754 12 callsubr
          -97 callsubr
          hintmask 00000000
          -712 -1696 -39 callsubr
        </CharString>
        <CharString name="a">
          35 -66 callsubr
          12 callgsubr
          hintmask 00000000
          hintmask 10110000
          391 11 callgsubr
          124 104 102 74 hvcurveto
          hintmask 01110000
          33 callsubr
          172 hlineto
          156 1156 -113 -57 callsubr
          -187 -31 callsubr
          hvcurveto
          hintmask 10110000
          -100 callsubr
          endchar
        </CharString>
        <CharString name="aacute">
          35 -66 callsubr
          85 472 12 callgsubr
          314 459 -100 callgsubr
          254 1105 5 callsubr
        </CharString>
        <CharString name="abreve">
          35 -66 callsubr
          144 147 12 callgsubr
          127 140 -100 callgsubr
          283 1164 -106 callgsubr
          endchar
        </CharString>
        <CharString name="acircumflex">
          35 -66 callsubr
          43 451 12 callgsubr
          59 695 -100 callgsubr
          -7 1063 -39 callgsubr
        </CharString>
        <CharString name="acute">
          -551 1241 472 hstem
          49 459 vstem
          132 1241 5 callsubr
        </CharString>
        <CharString name="acute.cap">
          -584 1679 -21 hstem
          78 400 vstem
          151 -71 callsubr
          endchar
        </CharString>
        <CharString name="adieresis">
          35 -66 callsubr
          12 callgsubr
          hintmask 00000000
          hintmask 10110000
          391 11 callgsubr
          124 104 102 74 hvcurveto
          hintmask 01110000
          33 callsubr
          172 hlineto
          156 1156 -113 -57 callsubr
          -187 -31 callsubr
          hvcurveto
          hintmask 10110000
          -100 callsubr
          hintmask 00000000
          496 1252 -46 callsubr
        </CharString>
        <CharString name="ae">
          523 -66 callgsubr
          -143 143 12 callgsubr
          401 206 477 196 hintmask 00000000
          hintmask 11011110
          371 -16 -81 callsubr
          hintmask 11101110
          176 20 120 268 204 hhcurveto
          74 54 -28 -91 hvcurveto
          hintmask 11011110
          -197 -310 -121 -162 -7 vhcurveto
          endchar
        </CharString>
        <CharString name="aeacute">
          523 -66 callgsubr
          -143 143 85 472 12 callgsubr
          401 206 -89 459 107 196 hintmask 0000100100000000
          884 1241 -90 callgsubr
          hintmask 0000000000000000
          -430 -1328 -81 callsubr
          hintmask 1101011010000000
          176 20 120 268 204 hhcurveto
          74 54 -28 -91 hvcurveto
          hintmask 1110011010000000
          -197 -310 -121 -162 -7 vhcurveto
          endchar
        </CharString>
        <CharString name="afii61352">
          1387 0 158 412 143 676 143 hstem
          1576 187 488 188 vstem
          1580 1058 rmoveto
          -297 -30 146 -191 259 hhcurveto
          195 251 139 339 34 hvcurveto
          297 30 -145 187 -259 hhcurveto
          -196 -252 -135 -339 -33 hvcurveto
          -1418 -1058 rmoveto
          -90 callsubr
          1412 -462 rmoveto
          23 229 102 90 149 2 151 2 77 -143 -22 -212 -22 -227 -100 -94 -151 -2 -151 -2 -78 147 22 210 rrcurveto
          -249 -1068 rmoveto
          773 hlineto
          12 158 rlineto
          -773 hlineto
          endchar
        </CharString>
        <CharString name="agrave">
          35 -66 callsubr
          85 472 12 callgsubr
          36 441 -100 callgsubr
          249 1105 -79 callgsubr
        </CharString>
        <CharString name="amacron">
          35 -66 callsubr
          269 149 12 callgsubr
          149 514 -100 callgsubr
          6 1289 -71 callgsubr
          endchar
        </CharString>
        <CharString name="ampersand">
          424 -20 134 -131 140 561 146 583 133 hstemhm
          94 204 37 180 404 186 4 181 hintmask 00000000
          hintmask 01111110
          94 368 rmoveto
          -283 272 -102 275 133 116 24 45 95 vhcurveto
          hintmask 10111110
          -48 74 101 -24 76 hhcurveto
          38 60 3 11 51 hvcurveto
          21 120 rlineto
          -26 hlineto
          -96 -3 -76 12 -71 38 rrcurveto
          hintmask 01111101
          99 102 54 144 179 vvcurveto
          40 -5 32 -7 26 vhcurveto
          152 hlineto
          9 145 -287 1 rlineto
          -88 -49 -17 -18 -18 hvcurveto
          -10 -134 21 10 36 7 43 4 rlinecurve
          12 -37 10 -47 -56 vvcurveto
          -118 -37 -96 -64 -69 vhcurveto
          -140 129 -118 165 -106 184 rrcurveto
          hintmask 01111110
          219 119 242 123 258 vvcurveto
          136 -123 173 -233 -241 -173 -177 -241 -110 41 -135 48 -105 vhcurveto
          -176 -99 -154 -116 -195 vvcurveto
          482 492 rmoveto
          -31 64 -30 93 117 vvcurveto
          145 84 134 143 115 62 -82 -115 -163 -163 -97 -180 -96 vhcurveto
          -278 -488 rmoveto
          120 83 84 113 73 vhcurveto
          101 -169 84 -144 183 -176 rrcurveto
          -24 -60 -70 -13 -75 hhcurveto
          -171 -188 58 191 hvcurveto
          endchar
        </CharString>
        <CharString name="aogonek">
          64 35 callgsubr
          271 152 -115 -21 1013 143 hstemhm
          97 202 202 194 hintmask 00000000
          hintmask 11011100
          407 11 callgsubr
          124 104 102 74 hvcurveto
          33 callsubr
          -74 callgsubr
          hvcurveto
          hintmask 10111100
          -1 callsubr
          vhcurveto
          16 hlineto
          156 1156 -113 -57 callsubr
          -187 -31 callsubr
          hvcurveto
          hintmask 11011100
          -100 callsubr
          endchar
        </CharString>
        <CharString name="approxequal">
          -47 285 166 6 166 108 166 6 166 hstemhm
          55 927 -877 927 hintmask 00000000
          hintmask 01001000
          126 340 -3 callsubr
          hintmask 10001000
          -37 callgsubr
          hintmask 01001000
          19 callgsubr
          hintmask 00000000
          121 373 -3 callsubr
          hintmask 00010100
          -37 callgsubr
          hintmask 00100100
          19 callgsubr
          endchar
        </CharString>
        <CharString name="aring">
          35 -66 callsubr
          97 106 319 108 12 callgsubr
          159 14 callsubr
          hintmask 00000000
          hintmask 10100100
          391 11 callgsubr
          124 104 102 74 hvcurveto
          hintmask 01100100
          33 callsubr
          172 hlineto
          156 1156 -113 -57 callsubr
          -187 -31 callsubr
          hvcurveto
          hintmask 10100100
          -100 callsubr
          hintmask 00011011
          303 1117 -89 callsubr
          endchar
        </CharString>
        <CharString name="asciicircum">
          254 1530 -20 hstem
          176 965 vstem
          176 510 rmoveto
          175 hlineto
          417 828 202 -828 rlineto
          171 hlineto
          -257 1020 rlineto
          -197 hlineto
          endchar
        </CharString>
        <CharString name="asciitilde">
          27 720 166 6 166 hstemhm
          132 927 hintmask 00000000
          hintmask 01100000
          203 775 -3 callsubr
          hintmask 10100000
          -37 callgsubr
          hintmask 01100000
          19 callgsubr
          endchar
        </CharString>
        <CharString name="asterisk">
          256 1149 -20 21 -20 hstemhm
          231 1000 hintmask 00000000
          hintmask 01100000
          582 648 rmoveto
          197 -1 -1 292 -16 145 101 -98 219 -170 115 166 rlineto
          hintmask 10100000
          -255 120 -132 47 142 48 279 121 -77 167 -257 -171 -120 -95 43 142 59 292 rlineto
          -192 hlineto
          -2 -292 13 -142 -100 95 -218 170 -115 -166 rlineto
          hintmask 01100000
          255 -121 132 -47 -142 -48 -279 -120 77 -167 257 171 118 98 -42 -145 rlineto
          endchar
        </CharString>
        <CharString name="at">
          858 -440 139 308 153 -149 174 782 125 322 131 hstemhm
          121 152 260 179 455 177 372 153 hintmask 0000000000000000
          hintmask 1101111110000000
          121 374 rmoveto
          -517 328 -297 449 171 163 46 70 92 vhcurveto
          -33 97 rlineto
          -33 -68 -192 -41 -118 hhcurveto
          -335 -305 191 508 504 333 512 541 305 264 -116 -439 hvcurveto
          hintmask 1011111110000000
          -323 -190 -351 -168 -10 -4 10 18 41 -5 43 10 103 vhcurveto
          19 201 51 314 39 153 -165 -30 rcurveline
          39 -56 -109 15 -55 hhcurveto
          -370 -164 -367 -291 -6 hvcurveto
          hintmask 1101111110000000
          -297 -6 149 -130 135 hhcurveto
          148 130 151 213 90 hvcurveto
          -6 -59 -6 -40 -47 vvcurveto
          hintmask 1011111110000000
          -119 0 -95 90 267 345 319 559 400 -260 256 -424 vhcurveto
          hintmask 1101111110000000
          -590 -474 -447 -724 hvcurveto
          591 73 rmoveto
          230 125 290 228 55 92 -24 -51 33 vhcurveto
          -240 -30 -236 -492 -137 hhcurveto
          -101 -29 130 157 hvcurveto
          endchar
        </CharString>
        <CharString name="atilde">
          35 -66 callsubr
          192 4 callgsubr
          81 202 40 783 hintmask 00000000
          hintmask 10100010
          391 11 callgsubr
          124 104 102 74 hvcurveto
          hintmask 01100010
          33 callsubr
          172 hlineto
          156 1156 -113 -57 callsubr
          -187 -31 callsubr
          hvcurveto
          hintmask 10100010
          -100 callsubr
          hintmask 00000000
          -16 1261 -54 callgsubr
          hintmask 00001001
          -59 callsubr
          hintmask 00010001
          -69 callsubr
          hintmask 00000101
          -48 -38 -32 -62 -74 hhcurveto
          hintmask 00010001
          -76 callsubr
          endchar
        </CharString>
        <CharString name="b">
          53 -16 143 877 152 hstem
          868 202 vstem
          -62 callgsubr
          endchar
        </CharString>
        <CharString name="backslash">
          -256 -362 1959 hstem
          26 750 vstem
          776 -362 rmoveto
          -577 1959 rlineto
          -173 hlineto
          576 -1959 rlineto
          endchar
        </CharString>
        <CharString name="bar">
          18 callgsubr
          -186 rmoveto
          173 1966 -173 hlineto
          endchar
        </CharString>
        <CharString name="braceleft">
          -86 27 callgsubr
          287 431 hintmask 00000000
          hintmask 10110000
          287 -47 rmoveto
          -110 -1 44 -33 125 hhcurveto
          110 74 21 26 91 hvcurveto
          0 9 73 3 15 vhcurveto
          -275 hlineto
          95 630 6 41 -17 37 -30 31 rlinecurve
          -29 30 -54 31 -59 31 rrcurveto
          0 116 53 29 17 vhcurveto
          53 33 37 37 8 54 rrcurveto
          hintmask 11010000
          96 631 rlineto
          276 hlineto
          hintmask 10110000
          1 19 12 68 0 vvcurveto
          hintmask 11010000
          0 -171 47 -89 -157 -47 -54 -198 -31 vhcurveto
          -77 -517 -4 -23 -25 -21 -36 -19 rlinecurve
          -52 -27 -75 -22 -65 -16 -18 -124 rcurveline
          59 -14 63 -25 43 -29 rrcurveto
          32 -21 20 -24 -22 vvcurveto
          hintmask 10110000
          0 -89 -597 -1 -29 vhcurveto
          endchar
        </CharString>
        <CharString name="braceright">
          -86 -189 32 callsubr
          355 431 hintmask 00000000
          hintmask 01110000
          786 1593 rmoveto
          110 1 -44 33 -125 hhcurveto
          -110 -74 -21 -26 -91 hvcurveto
          0 -9 -73 -3 -15 vhcurveto
          275 hlineto
          -95 -630 -6 -41 17 -37 30 -31 rlinecurve
          29 -30 54 -31 59 -31 rrcurveto
          0 -116 -53 -29 -17 vhcurveto
          -53 -33 -37 -37 -8 -54 rrcurveto
          hintmask 10110000
          -96 -631 rlineto
          -276 hlineto
          hintmask 01110000
          -1 -19 -12 -68 0 vvcurveto
          hintmask 10110000
          0 171 -47 89 157 47 54 198 31 vhcurveto
          77 517 4 23 25 21 36 19 rlinecurve
          52 27 75 22 65 16 18 124 rcurveline
          -59 14 -63 25 -43 29 rrcurveto
          -32 21 -20 24 22 vvcurveto
          hintmask 01110000
          0 89 597 1 29 vhcurveto
          endchar
        </CharString>
        <CharString name="bracketleft">
          -256 27 callgsubr
          180 403 hintmask 00000000
          hintmask 10110000
          180 -47 rmoveto
          -110 46 -33 126 109 73 21 26 91 vhcurveto
          3 28 3 29 4 29 rrcurveto
          -87 -100 2 -88 hhcurveto
          hintmask 11010000
          223 1656 rlineto
          275 hlineto
          hintmask 10110000
          13 87 rlineto
          hintmask 11010000
          0 -172 47 -88 -158 -47 -60 -192 -25 vhcurveto
          -60 -455 -116 -598 -21 -367 rrcurveto
          hintmask 10110000
          -3 -40 -1 -36 -34 vvcurveto
          endchar
        </CharString>
        <CharString name="bracketright">
          -256 -179 32 callsubr
          333 403 hintmask 00000000
          hintmask 01110000
          736 1603 rmoveto
          110 -46 33 -126 -109 -73 -21 -26 -91 vhcurveto
          -3 -28 -3 -29 -4 -29 rrcurveto
          87 100 -2 88 hhcurveto
          hintmask 10110000
          -223 -1656 rlineto
          -275 hlineto
          hintmask 01110000
          -13 -87 rlineto
          hintmask 10110000
          0 172 -47 88 158 47 60 192 25 vhcurveto
          60 455 116 598 21 367 rrcurveto
          hintmask 01110000
          3 40 1 36 34 vvcurveto
          endchar
        </CharString>
        <CharString name="breve">
          -393 1300 147 hstem
          49 140 vstem
          348 1300 -106 callgsubr
          endchar
        </CharString>
        <CharString name="breve.cap">
          -395 1629 147 hstem
          49 140 vstem
          348 -88 callgsubr
          endchar
        </CharString>
        <CharString name="brokenbar">
          18 callgsubr
          886 rmoveto
          173 894 -173 hlineto
          -1966 vmoveto
          173 894 -173 hlineto
          endchar
        </CharString>
        <CharString name="bullet">
          -252 507 432 hstem
          233 427 vstem
          409 507 rmoveto
          153 98 140 120 99 -75 73 -101 -142 -109 -136 -120 -97 76 -79 100 hvcurveto
          endchar
        </CharString>
        <CharString name="c">
          -11 callgsubr
          hstem
          85 199 vstem
          85 434 -93 callsubr
          endchar
        </CharString>
        <CharString name="cacute">
          -11 callgsubr
          7 callgsubr
          85 199 257 459 hintmask 00101000
          624 1241 -90 callgsubr
          hintmask 11010000
          -456 -878 -93 callsubr
          endchar
        </CharString>
        <CharString name="caron">
          -315 1255 395 hstem
          50 734 vstem
          293 -76 callgsubr
          endchar
        </CharString>
        <CharString name="caron.cap">
          -317 1614 386 hstem
          50 734 vstem
          293 1614 3 callsubr
        </CharString>
        <CharString name="caronvertical">
          -795 1035 645 hstem
          238 183 vstem
          303 1035 -81 callgsubr
        </CharString>
        <CharString name="ccaron">
          -11 callgsubr
          99 395 hstemhm
          85 199 30 734 hintmask 00101000
          557 -76 callgsubr
          hintmask 11010000
          -229 -1128 -93 callsubr
          endchar
        </CharString>
        <CharString name="ccedilla">
          -205 -464 165 310 -21 22 -21 1018 147 hstemhm
          85 199 103 171 hintmask 00000000
          hintmask 10111100
          157 -285 rmoveto
          -67 callsubr
          63 -9 54 -15 39 hvcurveto
          139 24 103 92 44 59 -65 106 rcurveline
          -97 -100 -75 -42 -88 hhcurveto
          -134 -74 83 238 324 194 231 170 72 62 -15 -43 52 hvcurveto
          51 167 rlineto
          29 -57 -91 9 -72 hhcurveto
          -385 -195 -409 -313 hvcurveto
          hintmask 11011100
          -253 104 -160 198 -31 vhcurveto
          1 -35 -1 -43 -31 vvcurveto
          -149 -77 -31 -82 vhcurveto
          hintmask 10111100
          -31 -23 5 9 -17 hvcurveto
          endchar
        </CharString>
        <CharString name="ccircumflex">
          -11 callgsubr
          43 451 hstemhm
          85 199 2 695 hintmask 00101000
          363 1199 -92 callsubr
          hintmask 11010000
          -201 -842 -93 callsubr
          endchar
        </CharString>
        <CharString name="cdotaccent">
          -11 callgsubr
          9 callsubr
          85 199 262 267 hintmask 11010000
          85 434 -93 callsubr
          hintmask 00101000
          576 954 -96 callsubr
        </CharString>
        <CharString name="cedilla">
          -631 -464 165 hstem
          259 171 vstem
          255 30 rmoveto
          7 -32 -3 -72 -45 -44 callgsubr
          -67 callsubr
          88 -17 68 -28 39 hvcurveto
          -53 4 rlineto
          endchar
        </CharString>
        <CharString name="cent">
          -53 -14 147 -126 -21 33 -21 1011 146 hstemhm
          137 199 hintmask 00000000
          hintmask 00111000
          400 -2 rmoveto
          -39 -213 rlineto
          150 hlineto
          hintmask 01011000
          37 201 159 13 117 102 48 65 rlinecurve
          -65 106 rlineto
          hintmask 10011000
          -97 -100 -75 -42 -88 hhcurveto
          -134 -74 83 238 324 194 231 170 72 62 -15 -43 52 hvcurveto
          51 167 -48 24 -71 11 -65 2 rlinecurve
          52 203 rlineto
          -150 hlineto
          -54 -216 rlineto
          -308 -72 -156 -356 -280 vvcurveto
          hintmask 00111000
          -236 91 -156 172 -44 vhcurveto
          endchar
        </CharString>
        <CharString name="circumflex">
          -315 1199 451 hstem
          49 695 vstem
          126 1199 -39 callgsubr
        </CharString>
        <CharString name="circumflex.cap">
          -315 1677 -21 hstem
          49 695 vstem
          126 1579 -95 callsubr
        </CharString>
        <CharString name="colon">
          -584 -1 -21 830 -21 hstemhm
          68 276 -183 276 hintmask 10100000
          68 90 -75 callsubr
          hintmask 01010000
          93 809 -75 callsubr
          endchar
        </CharString>
        <CharString name="comma">
          -584 -480 -21 hstem
          165 208 vstem
          -32 callgsubr
          endchar
        </CharString>
        <CharString name="commaaccent">
          -743 -18 callgsubr
          hstem
          97 191 vstem
          155 -51 -104 callsubr
          endchar
        </CharString>
        <CharString name="copyright">
          1019 82 129 268 157 657 157 264 126 hstem
          194 142 285 194 977 -58 callgsubr
          285 -7 rmoveto
          -248 163 -229 277 133 121 40 54 65 vhcurveto
          -45 124 rlineto
          -28 -50 -92 -33 -105 hhcurveto
          -160 -113 118 217 180 99 142 184 100 70 -27 -36 55 hvcurveto
          32 164 rlineto
          20 -35 -75 36 -128 hhcurveto
          -323 -173 -214 -280 hvcurveto
          endchar
        </CharString>
        <CharString name="currency">
          430 252 133 610 133 hstem
          342 148 584 148 vstem
          232 243 rmoveto
          114 -113 194 194 rlineto
          -46 69 83 -26 90 hhcurveto
          92 86 28 48 71 hvcurveto
          194 -193 114 113 -194 194 rlineto
          48 70 29 85 93 vvcurveto
          89 -27 83 -45 69 vhcurveto
          191 191 -113 114 -190 -189 rlineto
          51 -72 -89 30 -95 hhcurveto
          -91 -85 -28 -47 -70 hvcurveto
          -194 196 -113 -114 193 -193 rlineto
          -51 -71 -29 -87 -94 vvcurveto
          -96 30 -88 52 -71 vhcurveto
          66 255 rmoveto
          167 130 138 162 162 130 -138 -167 -167 -130 -138 -162 -162 -130 138 167 vhcurveto
          endchar
        </CharString>
        <CharString name="d">
          51 -66 callsubr
          -15 -20 hstemhm
          79 202 hintmask 00000000
          hintmask 10101000
          -16 callsubr
          hintmask 01011000
          -24 callsubr
          hintmask 10101000
          -86 callsubr
          endchar
        </CharString>
        <CharString name="dagger">
          -295 1127 150 hstemhm
          135 740 -417 122 hintmask 00000000
          hintmask 11000000
          295 151 rmoveto
          117 hlineto
          hintmask 10100000
          165 857 6 119 rlineto
          271 hlineto
          21 150 rlineto
          -293 31 callsubr
          -24 -177 -2 -192 rlineto
          -300 hlineto
          -22 -150 rlineto
          279 hlineto
          -26 -119 rlineto
          endchar
        </CharString>
        <CharString name="daggerdbl">
          -295 629 150 348 150 hstem
          387 204 vstem
          280 -51 rmoveto
          115 hlineto
          118 561 7 119 rlineto
          214 hlineto
          21 150 rlineto
          -225 hlineto
          59 202 6 146 rlineto
          259 hlineto
          21 150 rlineto
          -281 31 callsubr
          -25 -177 -1 -192 rlineto
          -271 hlineto
          -20 -150 rlineto
          249 hlineto
          -40 -146 1 -202 rlineto
          -229 hlineto
          -24 -150 rlineto
          218 hlineto
          -29 -119 rlineto
          endchar
        </CharString>
        <CharString name="dcaron">
          319 -16 152 -115 -21 1005 645 -637 143 -15 -20 hstemhm
          79 202 983 183 hintmask 00000000
          hintmask 10010100
          -16 callsubr
          hintmask 01001100
          -24 callsubr
          hintmask 10010100
          -86 callsubr
          hintmask 00100010
          905 869 -81 callgsubr
        </CharString>
        <CharString name="dcroat">
          51 -66 callsubr
          -15 -20 141 130 hstemhm
          79 202 hintmask 00000000
          hintmask 10101100
          -16 callsubr
          hintmask 01011100
          -16 -194 rlineto
          174 hlineto
          170 1262 rlineto
          128 hlineto
          16 130 rlineto
          -126 hlineto
          33 246 rlineto
          -195 hlineto
          -34 -246 rlineto
          -260 hlineto
          -16 -130 rlineto
          258 hlineto
          -16 -121 rlineto
          hintmask 10101100
          -86 callsubr
          endchar
        </CharString>
        <CharString name="degree">
          -211 955 121 403 121 hstem
          144 140 380 140 vstem
          463 955 rmoveto
          193 145 138 185 3 hvcurveto
          177 3 -140 145 -185 hhcurveto
          -193 -142 -139 -183 -3 hvcurveto
          -177 -3 137 -146 185 hhcurveto
          7 121 rmoveto
          -106 -82 91 111 2 hvcurveto
          115 2 80 86 111 hhcurveto
          106 83 -90 -111 -2 hvcurveto
          -116 -2 -81 -86 -111 hhcurveto
          endchar
        </CharString>
        <CharString name="dieresis">
          -301 1388 3 callgsubr
          60 20 callsubr
          hintmask 00000000
          hintmask 11100000
          595 1388 -46 callsubr
        </CharString>
        <CharString name="dieresis.cap">
          -303 12 callsubr
          -11 callsubr
          58 -1 callgsubr
          hintmask 00000000
          hintmask 01010000
          590 12 callsubr
          rmoveto
          80 69 -31 callgsubr
          hintmask 10010000
          -51 callsubr
          hintmask 01010000
          4 callsubr
          hintmask 01100000
          -43 callgsubr
          hintmask 10100000
          63 2 -47 53 -77 hhcurveto
          -65 -75 -67 -77 -3 hvcurveto
          hintmask 01100000
          28 callsubr
        </CharString>
        <CharString name="divide">
          228 696 157 hstem
          241 887 vstem
          712 1026 rmoveto
          76 88 60 87 10 hvcurveto
          68 8 -36 57 -93 hhcurveto
          -75 -91 -63 -84 -9 hvcurveto
          -78 -9 61 -47 70 hhcurveto
          -471 -330 rmoveto
          869 hlineto
          18 157 rlineto
          -869 hlineto
          235 -476 rmoveto
          -78 -9 60 -47 71 hhcurveto
          78 84 60 87 11 hvcurveto
          67 8 -35 58 -93 hhcurveto
          -76 -89 -64 -83 -10 hvcurveto
          endchar
        </CharString>
        <CharString name="dollar">
          94 2 -21 1558 -20 hstem
          283 198 334 206 vstem
          129 68 rmoveto
          37 -31 116 -43 134 -13 -33 -211 rcurveline
          180 hlineto
          35 214 250 30 177 147 -4 260 rlinecurve
          -47 callgsubr
          -171 116 -70 68 7 160 rrcurveto
          171 8 153 35 119 hhcurveto
          76 128 -20 -65 63 hvcurveto
          63 151 -41 29 -75 37 -122 13 rlinecurve
          31 190 rlineto
          -181 hlineto
          -30 -188 -232 -26 -163 -145 5 -234 rlinecurve
          4 -222 158 -127 153 -101 rrcurveto
          165 -109 52 -92 -112 vvcurveto
          -175 -159 -66 -159 -126 -150 55 41 -37 vhcurveto
          endchar
        </CharString>
        <CharString name="dotaccent">
          -723 1388 263 hstem
          60 267 vstem
          175 1388 -96 callsubr
        </CharString>
        <CharString name="dotaccent.cap">
          -721 1717 -21 hstem
          58 265 vstem
          171 12 callsubr
          -5 callsubr
        </CharString>
        <CharString name="dotlessi">
          -41 callgsubr
          hstem
          124 350 vstem
          124 hmoveto
          2 callgsubr
        </CharString>
        <CharString name="dotlessj">
          14 callgsubr
          hstem
          -230 702 vstem
          131 -77 callsubr
          endchar
        </CharString>
        <CharString name="e">
          -75 -66 callgsubr
          hstem
          86 206 477 196 vstem
          86 434 -96 callgsubr
        </CharString>
        <CharString name="eacute">
          -75 -66 callgsubr
          7 callgsubr
          86 206 243 459 -225 196 hintmask 00010100
          618 1241 -90 callgsubr
          hintmask 11101010
          -449 -878 -96 callgsubr
        </CharString>
        <CharString name="ebreve">
          -75 -66 callgsubr
          144 147 hstemhm
          86 206 56 140 281 196 hintmask 11101010
          86 434 -107 callsubr
          hintmask 00010100
          350 736 -106 callgsubr
          endchar
        </CharString>
        <CharString name="ecaron">
          -75 -66 callgsubr
          99 395 hstemhm
          86 206 16 734 -273 196 hintmask 00010100
          551 -76 callgsubr
          hintmask 11101010
          -222 -1128 -96 callgsubr
        </CharString>
        <CharString name="ecircumflex">
          -75 -66 callgsubr
          43 451 hstemhm
          86 206 -12 695 -206 196 hintmask 00010100
          357 1199 -92 callsubr
          hintmask 11101010
          -194 -842 -96 callgsubr
        </CharString>
        <CharString name="edieresis">
          -75 -66 callgsubr
          9 callsubr
          86 206 33 20 callsubr
          -243 196 hintmask 00000000
          hintmask 00010110
          860 1388 rmoveto
          -107 callgsubr
          -420 hmoveto
          -107 callgsubr
          hintmask 11101001
          -354 -954 -96 callgsubr
        </CharString>
        <CharString name="edotaccent">
          -75 -66 callgsubr
          9 callsubr
          86 206 248 267 -38 196 hintmask 11101010
          86 434 -107 callsubr
          hintmask 00010100
          358 824 -96 callsubr
        </CharString>
        <CharString name="egrave">
          -75 -66 callgsubr
          7 callgsubr
          86 206 -35 441 71 196 hintmask 11101010
          86 434 -107 callsubr
          hintmask 00010100
          316 677 -79 callgsubr
        </CharString>
        <CharString name="eight">
          160 -16 136 1320 129 hstemhm
          123 212 -38 201 370 216 -133 197 hintmask 00000000
          hintmask 11100100
          123 352 rmoveto
          -247 228 -121 206 vhcurveto
          hintmask 11101000
          292 235 157 266 168 -127 126 -146 102 hvcurveto
          hintmask 11010100
          170 55 167 179 203 vvcurveto
          202 -168 127 -216 -267 -200 -146 -262 -153 84 -99 109 -88 vhcurveto
          hintmask 11100100
          -193 -82 -174 -173 -214 vvcurveto
          586 527 rmoveto
          hintmask 11010100
          -123 88 -88 92 138 vvcurveto
          134 103 109 141 111 98 -74 -141 vhcurveto
          hintmask 11100100
          -158 -105 -127 -137 -61 vhcurveto
          -374 -502 rmoveto
          4 163 114 139 140 69 rrcurveto
          hintmask 11101000
          173 -115 102 -116 -148 vvcurveto
          -144 -117 -105 -159 vhcurveto
          hintmask 11100100
          -156 -101 106 151 hvcurveto
          endchar
        </CharString>
        <CharString name="ellipsis">
          469 -22 272 hstemhm
          87 280 246 280 246 280 cntrmask 01110000
          hintmask 00000000
          hintmask 11110000
          1140 103 rmoveto
          -34 callgsubr
          -526 hmoveto
          -34 callgsubr
          -526 hmoveto
          -34 callgsubr
          endchar
        </CharString>
        <CharString name="emacron">
          -75 -66 callgsubr
          269 149 hstemhm
          86 206 78 514 -115 196 hintmask 11101010
          86 434 -107 callsubr
          hintmask 00010100
          73 861 -71 callgsubr
          endchar
        </CharString>
        <CharString name="emdash">
          921 694 157 hstem
          218 1620 vstem
          218 694 rmoveto
          1590 hlineto
          30 157 rlineto
          -1591 hlineto
          endchar
        </CharString>
        <CharString name="endash">
          428 694 157 hstem
          218 1127 vstem
          218 694 rmoveto
          1097 hlineto
          30 157 rlineto
          -1097 hlineto
          endchar
        </CharString>
        <CharString name="eng">
          84 -518 106 433 -21 11 callsubr
          -16 -20 hstemhm
          867 199 hintmask 00000000
          hintmask 11101000
          83 hmoveto
          -29 callsubr
          96 710 rlineto
          139 105 170 126 113 hhcurveto
          65 40 -15 -106 -138 -50 -316 -54 -335 hvcurveto
          -239 -38 -70 -238 -194 hhcurveto
          -11 -41 4 8 -18 hvcurveto
          -35 -81 rlineto
          -24 22 55 -13 63 hhcurveto
          228 173 167 351 53 hvcurveto
          52 339 64 405 122 -44 callsubr
          -162 -165 -109 -135 -115 vhcurveto
          hintmask 11011000
          21 228 -10 callgsubr
          endchar
        </CharString>
        <CharString name="eogonek">
          -59 35 callgsubr
          271 154 287 139 444 148 hstem
          86 206 62 194 221 196 vstem
          86 434 rmoveto
          -228 -6 116 -222 283 hhcurveto
          41 40 6 10 38 hvcurveto
          -78 -48 -166 -105 -128 vvcurveto
          -63 56 -91 137 116 87 58 36 42 vhcurveto
          -51 99 rlineto
          -52 callsubr
          74 240 217 61 67 hvcurveto
          -8 -4 20 19 16 18 12 16 rlinecurve
          -55 111 rlineto
          -107 -114 -118 -52 -100 hhcurveto
          -184 -32 165 122 6 hvcurveto
          230 16 443 132 333 vvcurveto
          141 -89 109 -192 -351 -237 -321 -401 -10 vhcurveto
          211 130 rmoveto
          176 20 120 268 204 hhcurveto
          74 54 -28 -91 -197 -310 -121 -162 -7 hvcurveto
          endchar
        </CharString>
        <CharString name="equal">
          -47 23 callsubr
          166 848 rmoveto
          815 hlineto
          18 157 rlineto
          -815 hlineto
          -88 -666 rmoveto
          815 hlineto
          18 157 rlineto
          -815 hlineto
          endchar
        </CharString>
        <CharString name="estimated">
          262 -16 117 530 137 470 118 hstem
          115 260 661 244 vstem
          375 280 rmoveto
          351 894 vlineto
          11 51 0 64 86 vvcurveto
          -11 329 -238 200 -289 -5 rrcurveto
          -420 -7 -207 -286 -392 vvcurveto
          -430 231 -257 392 138 199 37 61 85 vhcurveto
          -39 113 rlineto
          -33 -65 -151 -61 -145 hhcurveto
          -163 -140 47 132 -82 hvcurveto
          488 vmoveto
          285 vlineto
          132 79 131 53 144 hhcurveto
          157 95 -52 -77 55 hvcurveto
          -341 vlineto
          endchar
        </CharString>
        <CharString name="eth">
          72 -16 138 892 142 373 -20 174 -21 hstem
          89 211 592 196 vstem
          89 446 rmoveto
          -214 130 -248 276 386 207 404 481 272 -92 220 -207 197 vhcurveto
          148 169 -98 89 rlineto
          0 -90 -109 -63 -69 vhcurveto
          -94 62 -123 61 -76 20 -43 -119 rcurveline
          73 -19 89 -54 79 -60 -157 -163 rcurveline
          106 -88 150 168 127 -116 58 -108 29 -180 rlinecurve
          84 -50 -117 30 -89 hhcurveto
          -281 -278 -258 -452 hvcurveto
          211 -12 rmoveto
          271 102 309 240 179 74 -179 -60 -3 vhcurveto
          -2 -42 -15 -84 -8 -51 rrcurveto
          -258 -40 -135 -218 -168 hhcurveto
          -146 -78 152 160 hvcurveto
          endchar
        </CharString>
        <CharString name="exclam">
          -424 -1 -21 hstem
          402 25 vstem
          246 488 -63 callsubr
          endchar
        </CharString>
        <CharString name="exclamdbl">
          193 -1 -21 hstemhm
          402 25 592 25 hintmask 10100000
          863 488 -63 callsubr
          hintmask 11000000
          -502 385 -63 callsubr
          endchar
        </CharString>
        <CharString name="exclamdown">
          -424 1345 21 hstem
          293 25 vstem
          474 856 rmoveto
          -158 hlineto
          -223 -1290 rlineto
          225 hlineto
          271 1675 rmoveto
          78 10 -59 47 -70 hhcurveto
          -88 -77 -58 -89 -12 hvcurveto
          -68 -9 34 -57 94 hhcurveto
          85 81 64 83 11 hvcurveto
          endchar
        </CharString>
        <CharString name="f">
          -415 21 -13 callgsubr
          hintmask 00000000
          hintmask 11011000
          148 hmoveto
          -91 callgsubr
          hintmask 11101000
          -85 callgsubr
          hintmask 11011000
          1 callsubr
          hintmask 11101000
          -87 callsubr
        </CharString>
        <CharString name="f_f">
          280 21 -13 callgsubr
          -49 744 hintmask 00000000
          hintmask 11011000
          148 hmoveto
          -91 callgsubr
          hintmask 11101000
          -85 callgsubr
          hintmask 11011000
          1 callsubr
          hintmask 11101000
          -99 callsubr
          hintmask 00000000
          -45 callsubr
          hintmask 11010100
          -85 callgsubr
          hintmask 11100100
          1 callsubr
          hintmask 11010100
          -87 callsubr
        </CharString>
        <CharString name="f_f_i">
          -93 callgsubr
        </CharString>
        <CharString name="f_f_l">
          864 4 1634 -1617 -13 callgsubr
          -49 744 -66 418 hintmask 10000001
          1515 4 -46 callgsubr
          hintmask 00000000
          -1590 -1638 rmoveto
          -91 callgsubr
          hintmask 01101100
          -85 callgsubr
          hintmask 01110100
          1 callsubr
          hintmask 01101100
          -99 callsubr
          hintmask 01110100
          -45 callsubr
          hintmask 00000000
          -85 callgsubr
          hintmask 01101010
          1 callsubr
          hintmask 01110010
          -87 callsubr
        </CharString>
        <CharString name="f_i">
          -87 callgsubr
        </CharString>
        <CharString name="f_l">
          169 4 1634 -1617 -13 callgsubr
          -66 418 hintmask 10000010
          820 4 -46 callgsubr
          hintmask 00000000
          -895 -1638 rmoveto
          -91 callgsubr
          hintmask 01101100
          -85 callgsubr
          hintmask 01110100
          1 callsubr
          hintmask 01101100
          -87 callsubr
        </CharString>
        <CharString name="ffi_dflt">
          -93 callgsubr
        </CharString>
        <CharString name="fi_trk">
          -87 callgsubr
        </CharString>
        <CharString name="five">
          6 -346 150 622 154 397 169 -169 185 hstemhm
          725 231 hintmask 00000000
          hintmask 11101000
          68 -189 rmoveto
          -23 -140 rlineto
          -14 40 57 -3 33 hhcurveto
          439 342 230 324 217 -106 155 -272 -63 -99 -11 -18 -66 hvcurveto
          116 426 rlineto
          546 hlineto
          hintmask 11011000
          38 185 rlineto
          -168 hlineto
          hintmask 11101000
          -22 -16 rlineto
          -547 hlineto
          -161 -698 73 -75 rlineto
          33 79 111 20 72 hhcurveto
          154 84 -86 -170 -249 -279 -117 -299 -23 -25 2 5 -31 hvcurveto
          endchar
        </CharString>
        <CharString name="florin">
          -51 999 156 367 156 4 -21 hstemhm
          194 824 hintmask 00000000
          hintmask 10110000
          234 -356 rmoveto
          -3 callgsubr
          176 1355 rlineto
          279 hlineto
          15 156 rlineto
          -273 hlineto
          18 133 rlineto
          hintmask 11010000
          204 28 78 30 106 hhcurveto
          93 36 -21 -10 19 hvcurveto
          hintmask 10110000
          11 170 rlineto
          hintmask 11010000
          6 -13 -53 11 -89 hhcurveto
          -165 -214 -151 -297 -40 hvcurveto
          -10 -75 -226 -54 -14 -102 rlineto
          219 hlineto
          endchar
        </CharString>
        <CharString name="four">
          154 0 139 -139 166 1001 -20 hstemhm
          20 1110 hintmask 00000000
          hintmask 10110000
          56 hmoveto
          616 hlineto
          -49 -375 rlineto
          189 hlineto
          47 375 rlineto
          250 hlineto
          hintmask 01110000
          21 174 -251 -15 63 490 -193 -35 rlineto
          hintmask 10110000
          -58 -466 -455 -17 79 99 596 937 -142 89 rlineto
          -47 hlineto
          -255 -455 -205 -341 -242 -366 rrcurveto
          endchar
        </CharString>
        <CharString name="foursuperior">
          84 814 149 715 -21 hstem
          131 1014 vstem
          612 471 -68 callgsubr
          endchar
        </CharString>
        <CharString name="fraction">
          -84 -15 callgsubr
          141 840 vstem
          141 hmoveto
          -21 callgsubr
        </CharString>
        <CharString name="g">
          -33 callgsubr
          hstem
          79 202 vstem
          171 -304 -72 callgsubr
        </CharString>
        <CharString name="gbreve">
          -33 callgsubr
          144 147 hstemhm
          79 202 135 140 hintmask 11101000
          171 -304 -102 callgsubr
          hintmask 00010100
          291 1164 -106 callgsubr
          endchar
        </CharString>
        <CharString name="gcircumflex">
          -33 callgsubr
          43 451 hstemhm
          79 202 67 695 hintmask 00010100
          425 1199 -92 callsubr
          hintmask 11101000
          -177 -1580 -72 callgsubr
        </CharString>
        <CharString name="gcommaaccent">
          -33 callgsubr
          535 -21 47 -21 hstemhm
          79 202 268 191 hintmask 00000000
          hintmask 00001010
          682 1237 rmoveto
          124 120 6 54 rlineto
          -40 9 -32 54 46 vvcurveto
          hintmask 00010010
          76 20 37 48 37 vhcurveto
          hintmask 00001010
          3 26 -80 50 rlineto
          -78 -18 -104 -108 -164 vvcurveto
          -96 51 -105 82 -18 vhcurveto
          hintmask 11100100
          -511 -1541 -72 callgsubr
        </CharString>
        <CharString name="gdotaccent">
          -33 callgsubr
          9 callsubr
          79 202 327 267 hintmask 11101000
          171 -304 -102 callgsubr
          hintmask 00010100
          299 1252 -96 callsubr
        </CharString>
        <CharString name="germandbls">
          70 -16 152 1312 141 hstemhm
          656 188 35 206 -192 202 hintmask 00000000
          hintmask 11101000
          77 4 rmoveto
          194 hlineto
          109 867 rlineto
          473 62 121 104 159 hhcurveto
          116 55 -71 -86 -114 -55 -81 -78 -83 hvcurveto
          -61 -65 -43 -56 -95 vvcurveto
          -87 75 -113 59 -70 vhcurveto
          hintmask 11110000
          40 -58 49 -94 -73 vvcurveto
          -125 -58 -40 -159 -1 vhcurveto
          -88 -1 -86 51 -34 32 -26 -187 rcurveline
          -22 44 120 -25 87 hhcurveto
          263 143 139 189 130 -67 108 -57 80 hvcurveto
          -51 71 -66 68 50 vvcurveto
          hintmask 11101000
          145 251 59 274 vvcurveto
          194 -135 98 -181 -215 -294 -58 -600 -76 vhcurveto
          endchar
        </CharString>
        <CharString name="grave">
          -569 1241 472 hstem
          49 441 vstem
          405 1241 -79 callgsubr
        </CharString>
        <CharString name="grave.cap">
          -588 1679 -21 hstem
          58 400 vstem
          385 1593 -29 callgsubr
        </CharString>
        <CharString name="greater">
          258 179 1148 hstem
          250 1025 vstem
          1275 817 rmoveto
          -890 510 -20 -177 685 -388 -776 -389 -24 -194 1009 510 rlineto
          endchar
        </CharString>
        <CharString name="greaterequal">
          258 148 98 hstem
          141 1071 vstem
          1202 689 rmoveto
          10 78 -889 437 -24 -180 627 -289 -705 -295 -24 -194 rlineto
          892 -248 rmoveto
          20 150 rlineto
          -948 hlineto
          -20 -150 rlineto
          endchar
        </CharString>
        <CharString name="guillemotleft">
          768 152 934 hstemhm
          245 752 -76 752 hintmask 11000000
          245 530 -35 callsubr
          hintmask 10100000
          654 -160 -35 callsubr
          endchar
        </CharString>
        <CharString name="guillemotright">
          768 152 934 hstemhm
          218 752 -76 752 hintmask 11000000
          970 708 -34 callsubr
          hintmask 10100000
          698 160 -34 callsubr
          endchar
        </CharString>
        <CharString name="guilsinglleft">
          80 152 934 hstem
          234 752 vstem
          234 530 -35 callsubr
          endchar
        </CharString>
        <CharString name="guilsinglright">
          80 152 934 hstem
          175 752 vstem
          927 708 -34 callsubr
          endchar
        </CharString>
        <CharString name="h">
          88 21 -21 11 callsubr
          -88 callsubr
          52 479 rlineto
          -195 hlineto
          endchar
        </CharString>
        <CharString name="hbar">
          88 21 -21 11 callsubr
          106 130 -88 callsubr
          11 103 rlineto
          264 hlineto
          16 130 rlineto
          -266 hlineto
          27 246 rlineto
          -195 hlineto
          -31 -246 rlineto
          -117 hlineto
          -16 -130 rlineto
          116 hlineto
          endchar
        </CharString>
        <CharString name="hcircumflex">
          88 21 -21 11 callsubr
          -88 callsubr
          28 262 47 -46 313 243 211 -234 94 68 -190 344 rlineto
          -178 hlineto
          -289 -304 16 146 rlineto
          -195 hlineto
          endchar
        </CharString>
        <CharString name="hungarumlaut">
          -192 1242 470 hstem
          49 817 vstem
          569 1242 -61 callgsubr
          endchar
        </CharString>
        <CharString name="hungarumlaut.cap">
          -188 1560 440 hstem
          59 862 vstem
          548 1560 -64 callsubr
        </CharString>
        <CharString name="hyphen">
          -9 callsubr
        </CharString>
        <CharString name="i">
          -41 callgsubr
          272 3 callgsubr
          124 22 callgsubr
          hintmask 11010000
          124 hmoveto
          -82 callsubr
          hintmask 00101000
          138 252 -96 callsubr
        </CharString>
        <CharString name="i.cy">
          -56 callgsubr
        </CharString>
        <CharString name="i.dot">
          -56 callgsubr
        </CharString>
        <CharString name="i.uc">
          -530 -68 callsubr
          207 -21 hstemhm
          35 callsubr
          -167 265 hintmask 11010000
          -75 callgsubr
          hintmask 00101000
          144 -8 callgsubr
        </CharString>
        <CharString name="iacute">
          -41 callgsubr
          121 472 hstemhm
          124 350 -172 459 hintmask 00101000
          385 1241 -90 callgsubr
          hintmask 11010000
          -178 -1312 -4 callgsubr
        </CharString>
        <CharString name="ibreve">
          -41 callgsubr
          180 147 hstemhm
          115 140 -131 350 hintmask 11001000
          124 hmoveto
          -82 callsubr
          hintmask 00110000
          135 160 -106 callgsubr
          endchar
        </CharString>
        <CharString name="icircumflex">
          -41 callgsubr
          79 451 hstemhm
          47 695 -618 350 hintmask 00110000
          124 1199 -92 callsubr
          hintmask 11001000
          77 -1276 -4 callgsubr
        </CharString>
        <CharString name="idieresis">
          -41 callgsubr
          268 3 callgsubr
          92 267 -235 350 38 267 hintmask 00000000
          hintmask 00110100
          627 1388 rmoveto
          -107 callgsubr
          -420 hmoveto
          -107 callgsubr
          hintmask 11001000
          -83 -1388 -4 callgsubr
        </CharString>
        <CharString name="igrave">
          -41 callgsubr
          121 472 hstemhm
          24 441 -341 350 hintmask 11001000
          124 hmoveto
          -82 callsubr
          hintmask 00110000
          101 101 -79 callgsubr
        </CharString>
        <CharString name="ij">
          53 -514 136 399 -55 callgsubr
          268 3 callgsubr
          124 22 callgsubr
          -213 702 -179 267 hintmask 10100010
          717 -77 callsubr
          hintmask 01101000
          -739 -1140 rmoveto
          -82 callsubr
          hintmask 00010100
          -85 callsubr
          hintmask 00010001
          577 hmoveto
          -107 callgsubr
          endchar
        </CharString>
        <CharString name="imacron">
          -41 callgsubr
          305 149 hstemhm
          124 350 -337 514 hintmask 11010000
          124 hmoveto
          -82 callsubr
          hintmask 00101000
          -142 285 -71 callgsubr
          endchar
        </CharString>
        <CharString name="infinity">
          694 225 152 467 164 hstem
          74 198 1260 198 vstem
          493 226 rmoveto
          179 2 140 113 91 126 rrcurveto
          -125 92 108 -117 197 hhcurveto
          271 159 150 256 185 -127 196 -289 -4 hvcurveto
          -176 -3 -140 -122 -91 -126 rrcurveto
          129 -95 -115 122 -203 hhcurveto
          -229 -191 -128 -278 -201 158 -179 261 4 hvcurveto
          23 152 rmoveto
          -167 -77 107 128 117 72 114 170 129 85 -134 -110 76 hvcurveto
          -128 -85 -91 -94 -112 hhcurveto
          492 245 rmoveto
          128 84 84 92 114 hhcurveto
          157 85 -106 -124 -121 -65 -115 -133 -143 -103 133 113 -80 hvcurveto
          endchar
        </CharString>
        <CharString name="integral">
          -68 -518 164 1875 164 hstem
          237 201 205 199 vstem
          194 -261 rmoveto
          -83 -134 rlineto
          -62 53 126 -61 149 hhcurveto
          302 101 208 280 hvcurveto
          430 -404 404 398 vvcurveto
          191 59 128 164 94 68 -35 -41 29 vhcurveto
          112 113 rlineto
          90 -59 -108 37 -131 hhcurveto
          -291 -138 -204 -278 hvcurveto
          -427 406 -408 -398 vvcurveto
          -263 -82 -61 -149 -117 -74 66 27 -27 vhcurveto
          endchar
        </CharString>
        <CharString name="iogonek">
          -469 35 callgsubr
          308 -55 callgsubr
          268 3 callgsubr
          -98 194 193 294 -267 24 hintmask 00000000
          hintmask 11111010
          431 1388 rmoveto
          hintmask 11111100
          80 69 70 78 3 hvcurveto
          62 3 -49 53 -76 hhcurveto
          hintmask 11111010
          -73 -69 -67 -76 -3 hvcurveto
          -65 -3 53 -55 65 hhcurveto
          -285 -1388 rmoveto
          1 hlineto
          -77 -47 -168 -96 -138 vvcurveto
          -63 56 -91 137 116 87 58 36 42 vhcurveto
          hintmask 11111100
          -51 99 rlineto
          15 callsubr
          38 hlineto
          155 1140 rlineto
          -195 hlineto
          endchar
        </CharString>
        <CharString name="itilde">
          -41 callgsubr
          228 4 callgsubr
          28 783 -687 350 hintmask 11000010
          124 hmoveto
          -82 callsubr
          hintmask 00000000
          -164 257 -54 callgsubr
          hintmask 00010100
          -59 callsubr
          hintmask 00100100
          -69 callsubr
          hintmask 00001100
          -48 -38 -32 -62 -74 hhcurveto
          hintmask 00100100
          -76 callsubr
          endchar
        </CharString>
        <CharString name="j">
          14 callgsubr
          272 3 callgsubr
          -230 702 -179 267 hintmask 11010000
          131 -77 callsubr
          hintmask 00101000
          131 252 -96 callsubr
        </CharString>
        <CharString name="jcircumflex">
          14 callgsubr
          79 451 hstemhm
          -230 702 -450 695 hintmask 11010000
          131 -77 callsubr
          hintmask 00101000
          -178 59 -39 callgsubr
        </CharString>
        <CharString name="k">
          -69 -22 callgsubr
          hstem
          88 960 vstem
          88 hmoveto
          -53 callsubr
        </CharString>
        <CharString name="kcommaaccent">
          -69 -18 callgsubr
          531 -55 callgsubr
          hstemhm
          88 960 -602 191 hintmask 11000100
          504 -51 -26 callgsubr
          -416 51 rmoveto
          -53 callsubr
        </CharString>
        <CharString name="kgreenlandic">
          -69 21 -21 1155 -20 hstem
          83 971 vstem
          402 630 rmoveto
          355 -630 rlineto
          227 hlineto
          -364 597 121 61 200 164 80 200 rlinecurve
          17 43 12 45 4 45 rrcurveto
          -186 hlineto
          -17 -47 -21 -44 -24 -42 -103 -182 -155 -128 -146 -81 1 -1 rcurveline
          -320 -630 -10 callsubr
          156 1155 rlineto
          -194 hlineto
          endchar
        </CharString>
        <CharString name="l">
          -526 4 1634 hstem
          125 418 vstem
          125 4 -46 callgsubr
          endchar
        </CharString>
        <CharString name="lacute">
          -526 21 -21 1522 -20 177 -21 hstemhm
          125 404 -146 400 hintmask 11010000
          125 hmoveto
          -29 callsubr
          209 1522 rlineto
          -195 hlineto
          hintmask 00101000
          122 71 -94 callgsubr
          endchar
        </CharString>
        <CharString name="lcaron">
          -325 6 1634 -635 645 hstemhm
          125 418 179 183 hintmask 10100000
          125 6 -46 callgsubr
          hintmask 01010000
          439 -635 -81 callgsubr
        </CharString>
        <CharString name="lcommaaccent">
          -526 -18 callgsubr
          514 1634 hstemhm
          125 418 -382 191 hintmask 11001000
          219 -51 -104 callsubr
          hintmask 00110000
          -94 55 -46 callgsubr
          endchar
        </CharString>
        <CharString name="ldot">
          -272 4 1634 -993 -21 hstemhm
          125 418 63 276 hintmask 10100000
          125 4 -46 callgsubr
          hintmask 01010000
          258 -902 -75 callsubr
          endchar
        </CharString>
        <CharString name="less">
          258 176 1148 hstem
          195 1025 vstem
          195 686 rmoveto
          890 -510 20 177 -685 388 776 389 24 194 -1009 -510 rlineto
          endchar
        </CharString>
        <CharString name="lessequal">
          258 -2 150 hstem
          139 1065 vstem
          197 689 rmoveto
          896 -443 21 182 -629 296 698 297 21 183 -998 -437 rlineto
          -67 -769 rmoveto
          948 hlineto
          18 150 rlineto
          -948 hlineto
          endchar
        </CharString>
        <CharString name="logicalnot">
          260 701 152 hstem
          211 977 vstem
          211 701 rmoveto
          783 hlineto
          -45 -379 rlineto
          177 hlineto
          62 531 rlineto
          -960 hlineto
          endchar
        </CharString>
        <CharString name="lozenge">
          65 21 -21 hstem
          50 1075 vstem
          585 hmoveto
          5 hlineto
          535 762 rlineto
          13 vlineto
          -535 741 rlineto
          -4 hlineto
          -536 -741 rlineto
          -13 vlineto
          536 -469 rmoveto
          -319 473 rlineto
          6 vlineto
          319 454 rlineto
          3 hlineto
          319 -454 rlineto
          -3 vlineto
          -319 -476 rlineto
          endchar
        </CharString>
        <CharString name="lslash">
          -526 4 1634 hstem
          112 534 vstem
          125 4 -10 callsubr
          112 825 214 84 rlineto
          147 vlineto
          -193 -79 90 657 rlineto
          -195 hlineto
          -102 -742 -134 -55 rlineto
          -137 vlineto
          114 45 rlineto
          endchar
        </CharString>
        <CharString name="m">
          659 11 callsubr
          -16 -20 hstemhm
          1443 199 hintmask 00000000
          hintmask 10100000
          -80 callsubr
          hintmask 01100000
          20 214 -10 callgsubr
          endchar
        </CharString>
        <CharString name="macron">
          -496 1425 149 hstem
          41 514 vstem
          41 1425 -71 callgsubr
          endchar
        </CharString>
        <CharString name="macron.cap">
          -496 1729 149 hstem
          36 514 vstem
          36 -2 callgsubr
          endchar
        </CharString>
        <CharString name="minus">
          -9 callsubr
        </CharString>
        <CharString name="minute">
          -487 1190 592 hstem
          275 334 vstem
          275 1190 6 callsubr
          endchar
        </CharString>
        <CharString name="mu">
          -83 callsubr
        </CharString>
        <CharString name="multiply">
          260 315 900 hstem
          231 966 vstem
          333 315 rmoveto
          369 350 281 -350 132 123 -301 327 383 327 -102 123 -369 -350 -281 350 -132 -123 301 -327 -383 -327 rlineto
          endchar
        </CharString>
        <CharString name="n">
          84 11 callsubr
          -16 -20 hstemhm
          867 199 hintmask 00000000
          hintmask 10100000
          83 4 -97 callgsubr
          hintmask 01100000
          21 224 -10 callgsubr
          endchar
        </CharString>
        <CharString name="nacute">
          84 11 callsubr
          7 callgsubr
          549 459 -141 199 hintmask 01100000
          632 1241 -90 callgsubr
          hintmask 00000000
          -466 -1308 -97 callgsubr
          hintmask 10010000
          21 224 -10 callgsubr
          endchar
        </CharString>
        <CharString name="nbspace">
          -625 endchar
        </CharString>
        <CharString name="ncaron">
          84 11 callsubr
          99 395 hstemhm
          322 734 -189 199 hintmask 01100000
          565 -76 callgsubr
          hintmask 00000000
          -239 -1558 -97 callgsubr
          hintmask 10010000
          21 224 -10 callgsubr
          endchar
        </CharString>
        <CharString name="ncommaaccent">
          84 -18 callgsubr
          1485 181 hstemhm
          423 191 253 199 hintmask 11010000
          481 -51 -104 callsubr
          hintmask 00000000
          -398 55 -97 callgsubr
          hintmask 00101000
          21 224 -10 callgsubr
          endchar
        </CharString>
        <CharString name="nine">
          153 148 153 724 138 hstem
          139 199 569 197 vstem
          203 -313 rmoveto
          44 -115 rlineto
          493 137 364 431 514 vvcurveto
          273 -139 236 -274 -359 -193 -329 -292 -200 103 -194 276 151 98 64 66 62 vhcurveto
          -94 -251 -231 -231 -301 -109 rrcurveto
          363 614 rmoveto
          -127 -101 78 192 179 84 275 223 193 69 -170 -182 -72 -8 -56 -19 -85 hvcurveto
          -50 -40 -93 -109 -181 hhcurveto
          endchar
        </CharString>
        <CharString name="notequal">
          -47 21 -21 23 callsubr
          153 hmoveto
          159 hlineto
          156 339 rlineto
          443 hlineto
          18 157 rlineto
          -388 hlineto
          162 352 rlineto
          278 hlineto
          18 157 rlineto
          -223 hlineto
          147 319 rlineto
          -159 hlineto
          -147 -319 rlineto
          -433 hlineto
          -18 -157 rlineto
          378 hlineto
          -162 -352 rlineto
          -268 hlineto
          -18 -157 rlineto
          213 hlineto
          endchar
        </CharString>
        <CharString name="ntilde">
          84 11 callsubr
          -16 -20 228 4 callgsubr
          275 783 -191 199 hintmask 00000000
          hintmask 10000010
          83 4 -97 callgsubr
          hintmask 01000010
          21 224 -10 callgsubr
          hintmask 00000000
          124 257 -54 callgsubr
          hintmask 00010100
          -59 callsubr
          hintmask 00100100
          -69 callsubr
          hintmask 00001100
          -48 -38 -32 -62 -74 hhcurveto
          hintmask 00100100
          -76 callsubr
          endchar
        </CharString>
        <CharString name="numbersign">
          295 21 -21 365 128 405 127 hstem
          111 1195 vstem
          267 hmoveto
          162 hlineto
          62 365 rlineto
          312 hlineto
          -51 -365 rlineto
          160 hlineto
          57 365 rlineto
          239 hlineto
          8 128 rlineto
          -227 hlineto
          65 405 rlineto
          244 hlineto
          8 127 rlineto
          -232 hlineto
          54 332 rlineto
          -165 hlineto
          -56 -332 rlineto
          -311 hlineto
          51 332 rlineto
          -165 hlineto
          -53 -332 rlineto
          -232 hlineto
          -8 -127 rlineto
          220 hlineto
          -64 -405 rlineto
          -226 hlineto
          -8 -128 rlineto
          214 hlineto
          186 128 rmoveto
          65 405 rlineto
          311 hlineto
          -64 -405 rlineto
          endchar
        </CharString>
        <CharString name="o">
          25 -53 callgsubr
          hstem
          89 203 544 205 vstem
          -86 callgsubr
          endchar
        </CharString>
        <CharString name="oacute">
          25 -53 callgsubr
          85 472 34 callsubr
          247 459 -162 205 hintmask 00101000
          622 1241 -90 callgsubr
          hintmask 11010100
          -450 -867 -105 callgsubr
          endchar
        </CharString>
        <CharString name="obreve">
          25 -53 callgsubr
          144 147 34 callsubr
          60 140 344 205 hintmask 11010100
          -86 callgsubr
          hintmask 00101000
          142 1169 -106 callgsubr
          endchar
        </CharString>
        <CharString name="ocircumflex">
          25 -53 callgsubr
          43 451 34 callsubr
          -8 695 -143 205 hintmask 00101000
          361 1199 -92 callsubr
          hintmask 11010100
          -195 -831 -105 callgsubr
          endchar
        </CharString>
        <CharString name="odieresis">
          25 -53 callgsubr
          9 callsubr
          89 203 37 20 callsubr
          -180 205 hintmask 00000000
          hintmask 00101100
          864 1388 rmoveto
          -107 callgsubr
          -420 hmoveto
          -107 callgsubr
          hintmask 11010010
          -355 -943 -105 callgsubr
          endchar
        </CharString>
        <CharString name="oe">
          654 -16 147 -147 154 287 139 445 147 34 callsubr
          1206 196 hintmask 00000000
          hintmask 10011100
          89 443 rmoveto
          -291 5 132 -168 253 hhcurveto
          156 133 78 120 98 hvcurveto
          -116 59 110 -82 173 hhcurveto
          194 159 123 79 57 hvcurveto
          -55 111 rlineto
          hintmask 01111100
          -107 -114 -118 -52 -100 hhcurveto
          -184 -32 165 122 6 hvcurveto
          230 16 443 132 333 vvcurveto
          141 -89 109 -192 -172 -144 -77 -125 -104 vhcurveto
          130 -60 -115 72 -168 hhcurveto
          hintmask 10011100
          -336 -231 -355 -358 6 hvcurveto
          420 -312 rmoveto
          -146 -68 115 199 -3 hvcurveto
          245 -5 104 319 228 hhcurveto
          146 68 -110 -193 3 hvcurveto
          1 -40 -3 -40 -4 -41 -4 -21 -3 -20 -2 -21 rrcurveto
          -201 -36 -102 -191 -174 hhcurveto
          hintmask 10111100
          517 433 rmoveto
          176 20 120 268 204 hhcurveto
          74 54 -28 -91 -197 -310 -121 -162 -7 hvcurveto
          endchar
        </CharString>
        <CharString name="ogonek">
          -623 35 callgsubr
          308 -21 hstem
          10 194 vstem
          255 hmoveto
          -74 callgsubr
          -1 callsubr
          hvcurveto
          -60 59 rlineto
          endchar
        </CharString>
        <CharString name="ograve">
          25 -53 callgsubr
          85 472 34 callsubr
          -31 441 134 205 hintmask 11010100
          -86 callgsubr
          hintmask 00101000
          108 1110 -79 callgsubr
        </CharString>
        <CharString name="ohungarumlaut">
          25 -53 callgsubr
          86 470 34 callsubr
          71 817 -344 205 hintmask 00101000
          883 1242 -61 callgsubr
          hintmask 11010100
          -274 -851 -105 callgsubr
          endchar
        </CharString>
        <CharString name="omacron">
          25 -53 callgsubr
          269 149 34 callsubr
          82 514 -52 205 hintmask 00101000
          374 1425 -71 callgsubr
          hintmask 11010100
          -289 -1129 -105 callgsubr
          endchar
        </CharString>
        <CharString name="one">
          -180 21 -21 1162 -20 hstem
          176 500 vstem
          315 hmoveto
          201 hlineto
          160 1142 -84 20 -106 -73 -170 -98 -140 -31 rlinecurve
          22 -127 87 15 75 19 77 25 rlinecurve
          endchar
        </CharString>
        <CharString name="onehalf">
          1450 -78 126 -27 -21 636 1009 -866 153 598 -20 hstemhm
          308 485 -88 840 513 192 hintmask 10010001
          1449 -78 -54 callsubr
          hintmask 00100100
          -931 618 -42 callgsubr
          hintmask 01001010
          130 -1395 rmoveto
          -21 callgsubr
        </CharString>
        <CharString name="onequarter">
          1450 21 -21 166 149 321 1009 -615 -21 521 -20 hstemhm
          308 485 -87 840 -271 1014 hintmask 01010001
          1756 -177 -68 callgsubr
          hintmask 00100100
          -1331 470 -42 callgsubr
          hintmask 10001010
          131 -1395 rmoveto
          -21 callgsubr
        </CharString>
        <CharString name="onesuperior">
          -90 636 1009 hstem
          278 485 vstem
          443 636 -42 callgsubr
          endchar
        </CharString>
        <CharString name="ordfeminine">
          -256 743 118 614 102 hstem
          94 174 vstem
          333 743 rmoveto
          122 77 66 61 52 hvcurveto
          -24 -127 rlineto
          167 hlineto
          146 831 -100 -26 rlineto
          15 -45 -70 14 -60 hhcurveto
          -291 -1 -213 -282 -254 vvcurveto
          -183 81 -114 158 vhcurveto
          70 118 rmoveto
          -103 -32 74 120 184 112 236 193 29 39 -13 -25 28 hvcurveto
          -78 -463 rlineto
          -51 -51 -77 -62 -60 hhcurveto
          endchar
        </CharString>
        <CharString name="ordmasculine">
          -256 733 125 613 118 hstem
          98 184 395 186 vstem
          423 733 rmoveto
          218 -4 222 172 313 vvcurveto
          218 -133 154 -193 3 vhcurveto
          -203 3 -236 -175 -312 vvcurveto
          -225 151 -144 174 -3 vhcurveto
          9 125 rmoveto
          -89 1 -61 105 159 vvcurveto
          134 55 212 187 2 vhcurveto
          106 1 47 -117 -159 vvcurveto
          -145 -42 -195 -203 2 vhcurveto
          endchar
        </CharString>
        <CharString name="oslash">
          25 -14 147 878 147 hstem
          90 203 544 205 vstem
          34 -83 rmoveto
          89 -49 128 184 rlineto
          -43 60 76 -23 93 hhcurveto
          336 232 349 363 -6 hvcurveto
          -3 158 -37 122 -74 78 138 198 rcurveline
          -89 49 -131 -186 rlineto
          27 -51 -61 14 -72 hhcurveto
          -336 -242 -348 -363 6 hvcurveto
          2 -135 30 -109 56 -78 rrcurveto
          132 178 rmoveto
          -11 42 -5 49 -1 55 rrcurveto
          249 -5 115 313 228 hhcurveto
          44 37 -11 -20 29 hvcurveto
          -379 -783 rmoveto
          443 696 20 -50 11 -67 1 -79 rlinecurve
          -249 5 -104 -315 -228 hhcurveto
          -64 -49 22 42 -35 hvcurveto
          endchar
        </CharString>
        <CharString name="otilde">
          25 -53 callgsubr
          192 4 callgsubr
          89 203 -27 783 -212 205 hintmask 11000101
          -86 callgsubr
          hintmask 00000000
          -157 1266 -54 callgsubr
          hintmask 00010010
          -59 callsubr
          hintmask 00100010
          -69 callsubr
          hintmask 00001010
          -48 -38 -32 -62 -74 hhcurveto
          hintmask 00100010
          -76 callsubr
          endchar
        </CharString>
        <CharString name="p">
          17 callgsubr
          hstemhm
          866 202 hintmask 00000000
          hintmask 10110100
          278 -1 rmoveto
          hintmask 11010100
          -9 48 50 -6 44 -48 callsubr
          -158 -131 -103 -100 -76 hvcurveto
          hintmask 11001100
          2 callsubr
          hintmask 11010100
          -61 callsubr
          hvcurveto
          hintmask 11001100
          -55 -54 9 15 -44 hvcurveto
          endchar
        </CharString>
        <CharString name="paragraph">
          254 21 -21 1414 157 -122 103 hstemhm
          161 1188 hintmask 00000000
          hintmask 11010000
          414 hmoveto
          192 hlineto
          177 1414 rlineto
          194 hlineto
          -175 -1414 rlineto
          190 hlineto
          hintmask 10110000
          50 421 79 573 50 422 167 33 rcurveline
          hintmask 11010000
          11 103 rlineto
          -259 hlineto
          -120 -90 19 -164 hhcurveto
          -402 -158 -184 -270 5 hvcurveto
          4 -218 137 -120 214 -5 rrcurveto
          endchar
        </CharString>
        <CharString name="parenleft">
          -256 1703 -21 hstem
          203 208 vstem
          203 505 rmoveto
          -513 266 -261 74 -50 vhcurveto
          17 hlineto
          108 64 rlineto
          -71 60 -186 266 441 vvcurveto
          74 9 104 11 83 vhcurveto
          92 526 307 329 84 54 -87 59 rcurveline
          -98 -53 -433 -387 -78 -577 rrcurveto
          -10 -77 -5 -73 -69 vvcurveto
          endchar
        </CharString>
        <CharString name="parenright">
          -256 -275 21 hstem
          464 208 vstem
          672 923 rmoveto
          513 -266 261 -74 50 vhcurveto
          -17 hlineto
          -108 -64 rlineto
          71 -60 186 -266 -441 vvcurveto
          -74 -9 -104 -11 -83 vhcurveto
          -92 -526 -307 -329 -84 -54 87 -59 rcurveline
          98 53 433 387 78 577 rrcurveto
          10 77 5 73 69 vvcurveto
          endchar
        </CharString>
        <CharString name="partialdiff">
          257 -16 162 751 153 471 164 hstem
          166 211 641 208 vstem
          166 461 rmoveto
          -293 15 214 -184 275 hhcurveto
          418 138 387 451 415 -169 448 -510 -108 -152 -27 -65 -90 hvcurveto
          73 -126 rlineto
          32 52 102 22 81 hhcurveto
          337 136 -227 -289 32 hvcurveto
          30 -83 -93 15 -92 hhcurveto
          -331 -266 -202 -387 21 hvcurveto
          211 34 rmoveto
          284 -15 191 118 172 hhcurveto
          112 92 -12 -46 89 hvcurveto
          -293 -43 -400 -287 -229 -71 151 198 -11 vhcurveto
          endchar
        </CharString>
        <CharString name="percent">
          801 -21 callsubr
          hintmask 0000000000000000
          hintmask 1110111111000000
          396 hmoveto
          159 hlineto
          947 1530 rlineto
          -159 hlineto
          hintmask 1101111111000000
          -51 callgsubr
          hintmask 1110111111000000
          529 -494 -73 callsubr
          endchar
        </CharString>
        <CharString name="period">
          -584 -1 -21 hstem
          89 276 vstem
          89 90 -75 callsubr
          endchar
        </CharString>
        <CharString name="periodcentered">
          -424 645 -21 hstem
          208 276 vstem
          208 736 -75 callsubr
          endchar
        </CharString>
        <CharString name="perthousand">
          1588 -21 callsubr
          97 161 359 170 hintmask 0110000000110000
          1824 374 -73 callsubr
          hintmask 0000000000000000
          -1589 -376 rmoveto
          159 hlineto
          947 1530 rlineto
          -159 hlineto
          hintmask 1110111111000000
          -51 callgsubr
          hintmask 1101111111000000
          529 -494 -73 callsubr
          endchar
        </CharString>
        <CharString name="pi">
          446 -16 172 -159 -21 979 185 hstemhm
          877 203 hintmask 00000000
          hintmask 01110000
          135 97 rmoveto
          134 -121 59 14 53 26 39 36 rlinecurve
          90 83 59 65 12 228 68 527 rcurveline
          322 hlineto
          -90 -698 rlineto
          hintmask 10110000
          -169 -22 72 -104 154 hhcurveto
          170 134 135 122 20 hvcurveto
          -107 49 rlineto
          -54 -28 -66 -80 -59 hhcurveto
          -38 -35 21 86 4 hvcurveto
          72 692 rlineto
          4 hlineto
          180 104 72 188 11 hvcurveto
          -142 hlineto
          -54 -18 -47 -21 -82 hhcurveto
          -713 hlineto
          -192 -99 -65 -155 -38 hvcurveto
          111 -53 rlineto
          39 36 53 50 94 hhcurveto
          51 hlineto
          -76 -469 -12 -140 -10 -105 -110 -81 rlinecurve
          hintmask 01110000
          -52 -37 -52 -23 -18 -4 rrcurveto
          endchar
        </CharString>
        <CharString name="plus">
          256 693 158 hstem
          241 915 vstem
          554 295 rmoveto
          179 hlineto
          28 241 3 55 5 54 2 -9 callgsubr
          -27 -230 -13 -165 -138 11 rlineto
          -226 17 callsubr
          endchar
        </CharString>
        <CharString name="plusminus">
          256 30 150 513 158 hstem
          172 984 vstem
          554 295 rmoveto
          179 hlineto
          27 241 3 55 5 54 3 -9 callgsubr
          -26 -230 -4 -54 -6 -56 -4 -55 rlinecurve
          -139 11 rlineto
          -225 17 callsubr
          -409 -506 rmoveto
          869 hlineto
          17 150 rlineto
          -869 hlineto
          endchar
        </CharString>
        <CharString name="product">
          547 1356 166 hstem
          331 225 545 225 vstem
          331 -170 rmoveto
          225 1526 545 -1526 225 1526 193 166 -1381 -166 193 hlineto
          endchar
        </CharString>
        <CharString name="q">
          49 -485 -21 490 152 877 143 6 -20 hstemhm
          79 202 hintmask 00000000
          hintmask 11101000
          389 11 callgsubr
          130 104 103 77 hvcurveto
          -35 -187 -68 -510 rlineto
          -29 callsubr
          hintmask 11011000
          220 1668 rlineto
          hintmask 11101000
          -123 -37 rlineto
          17 -64 -84 14 -66 hhcurveto
          -451 -197 -31 callsubr
          -260 98 -172 212 hvcurveto
          35 152 -42 callsubr
          54 52 -9 -15 44 hvcurveto
          -83 -608 rlineto
          -105 -69 -130 -140 -140 hhcurveto
          endchar
        </CharString>
        <CharString name="question">
          -90 -1 -21 1641 160 hstemhm
          269 190 -125 276 211 181 hintmask 00000000
          hintmask 11101000
          359 464 rmoveto
          17 -1 127 50 rlineto
          -7 31 -37 69 60 250 543 -46 471 vvcurveto
          213 -133 218 -368 -79 -95 -23 -30 -29 vhcurveto
          -28 -140 rlineto
          26 80 54 7 83 hhcurveto
          161 173 -101 -201 -28 -2 -39 -7 -29 hvcurveto
          -19 -90 -124 -74 -111 -57 rrcurveto
          -191 -103 -98 -86 -119 vvcurveto
          -92 42 -95 48 -41 vhcurveto
          hintmask 11011000
          -25 -374 -75 callsubr
          endchar
        </CharString>
        <CharString name="questiondown">
          -82 -365 160 1369 272 hstemhm
          87 181 211 276 -125 190 hintmask 00000000
          hintmask 11110000
          598 1164 rmoveto
          95 62 77 83 66 -54 46 -65 -95 -62 -60 -100 -59 34 -53 85 hvcurveto
          hintmask 11101000
          -511 -1098 rmoveto
          -213 133 -218 368 79 95 23 30 29 vhcurveto
          28 140 rlineto
          -26 -80 -54 -7 -83 hhcurveto
          -161 -173 101 201 28 2 39 7 29 hvcurveto
          19 90 124 74 111 57 rrcurveto
          191 103 98 86 119 vvcurveto
          92 -42 95 -48 41 vhcurveto
          -17 1 -127 -50 rlineto
          7 -31 37 -69 -60 -250 -543 46 -471 vvcurveto
          endchar
        </CharString>
        <CharString name="quotedbl">
          -107 966 721 hstemhm
          224 304 175 304 hintmask 11000000
          224 966 6 callgsubr
          hintmask 10100000
          402 -721 6 callgsubr
          endchar
        </CharString>
        <CharString name="quotedblbase">
          51 -523 814 hstemhm
          272 217 262 217 hintmask 11000000
          -43 callsubr
          hintmask 10100000
          479 -38 callsubr
        </CharString>
        <CharString name="quotedblleft">
          51 927 814 hstemhm
          189 217 262 217 hintmask 10100000
          850 927 rmoveto
          -65 callgsubr
          hintmask 11000000
          -479 hmoveto
          -65 callgsubr
          endchar
        </CharString>
        <CharString name="quotedblright">
          51 916 814 hstemhm
          456 217 262 217 hintmask 10100000
          970 -40 callgsubr
          hintmask 11000000
          -479 -38 callsubr
        </CharString>
        <CharString name="quoteleft">
          -428 927 814 hstem
          189 217 vstem
          371 927 rmoveto
          -65 callgsubr
          endchar
        </CharString>
        <CharString name="quotereversed">
          -428 896 820 hstem
          187 206 vstem
          381 896 rmoveto
          102 87 4 22 -58 52 -65 144 42 155 rlinecurve
          20 75 48 65 75 35 6 41 rcurveline
          -87 144 -89 -12 -129 -97 -43 -155 rlinecurve
          -74 -273 144 -193 104 -90 rrcurveto
          endchar
        </CharString>
        <CharString name="quoteright">
          -428 916 814 hstem
          386 217 vstem
          421 -40 callgsubr
          endchar
        </CharString>
        <CharString name="quotesinglbase">
          -428 -523 814 hstem
          272 217 vstem
          -43 callsubr
          endchar
        </CharString>
        <CharString name="quotesingle">
          -586 966 721 hstem
          224 304 vstem
          224 966 6 callgsubr
          endchar
        </CharString>
        <CharString name="r">
          -324 21 -21 949 207 -16 -20 23 -20 20 13 hstemhm
          82 733 hintmask 00000000
          hintmask 10010100
          82 hmoveto
          -29 callsubr
          92 673 rlineto
          hintmask 11000100
          -23 callsubr
          hintmask 10001100
          44 208 rlineto
          hintmask 11000100
          -26 callsubr
          hintmask 10100100
          19 203 -10 callgsubr
          endchar
        </CharString>
        <CharString name="racute">
          27 callsubr
          7 callgsubr
          82 733 -565 459 hintmask 00001010
          333 1241 -90 callgsubr
          hintmask 00000000
          -168 -1312 -10 callsubr
          92 673 rlineto
          hintmask 10100100
          -23 callsubr
          hintmask 11000100
          44 208 rlineto
          hintmask 10010100
          -26 callsubr
          hintmask 11000100
          19 203 -10 callgsubr
          endchar
        </CharString>
        <CharString name="radical">
          492 -354 2224 hstem
          84 1498 vstem
          173 458 rmoveto
          129 70 394 -882 rlineto
          173 hlineto
          713 2224 rlineto
          -211 hlineto
          -599 -1963 -318 809 rlineto
          -187 hlineto
          -183 -112 rlineto
          endchar
        </CharString>
        <CharString name="rcaron">
          27 callsubr
          99 395 hstemhm
          23 734 -675 733 hintmask 00001100
          266 -76 callgsubr
          hintmask 00000000
          59 -1562 -10 callsubr
          92 673 rlineto
          hintmask 10100010
          -23 callsubr
          hintmask 11000010
          44 208 rlineto
          hintmask 10010010
          -26 callsubr
          hintmask 11000010
          19 203 -10 callgsubr
          endchar
        </CharString>
        <CharString name="rcommaaccent">
          -324 -18 callgsubr
          531 -21 949 207 -13 -20 20 13 hstemhm
          82 733 -722 191 hintmask 11000001
          151 -51 -104 callsubr
          hintmask 00000000
          -69 51 -10 callsubr
          92 673 rlineto
          hintmask 00101010
          -23 callsubr
          hintmask 00110010
          44 208 rlineto
          hintmask 00100110
          -26 callsubr
          hintmask 00110010
          19 203 -10 callgsubr
          endchar
        </CharString>
        <CharString name="registered">
          1019 82 129 637 128 340 132 266 126 hstem
          194 142 402 177 333 184 360 -58 callgsubr
          402 -484 rmoveto
          177 369 hlineto
          49 49 0 1 26 hvcurveto
          90 -24 41 -115 42 -92 25 -53 21 -43 33 -42 204 -1 rcurveline
          -60 91 -21 29 -22 40 -45 84 -38 99 -70 52 rrcurveto
          142 43 51 111 146 vvcurveto
          149 -106 125 -253 vhcurveto
          -92 -95 -7 -71 hhcurveto
          -77 hlineto
          177 -461 rmoveto
          325 vlineto
          37 9 29 1 43 1 rrcurveto
          181 5 43 -68 -102 vvcurveto
          -129 -69 -46 -134 -34 -66 1 3 -30 vhcurveto
          endchar
        </CharString>
        <CharString name="ring">
          -387 1253 106 319 108 hstem
          93 14 callsubr
          vstem
          380 1253 -89 callsubr
          endchar
        </CharString>
        <CharString name="ring.cap">
          -387 1467 106 319 108 hstem
          51 14 callsubr
          vstem
          338 1467 -89 callsubr
          endchar
        </CharString>
        <CharString name="s">
          -238 -53 callgsubr
          hstem
          170 188 180 194 vstem
          44 43 -101 callgsubr
          endchar
        </CharString>
        <CharString name="sacute">
          -238 -53 callgsubr
          85 472 26 callsubr
          75 459 -354 194 hintmask 00101000
          516 1241 -90 callgsubr
          hintmask 11010100
          -389 -1269 -101 callgsubr
          endchar
        </CharString>
        <CharString name="scaron">
          -238 -53 callgsubr
          99 395 26 callsubr
          -152 734 -402 194 hintmask 00101000
          449 -76 callgsubr
          hintmask 11010100
          -162 -1519 -101 callgsubr
          endchar
        </CharString>
        <CharString name="scedilla">
          -238 -464 165 284 146 -117 -21 1016 147 26 callsubr
          -58 171 67 194 hintmask 00000000
          hintmask 11010110
          44 43 rmoveto
          31 -27 108 -26 117 -5 rrcurveto
          1 -34 -1 -40 -30 -44 callgsubr
          -67 callsubr
          hvcurveto
          hintmask 10110110
          65 -9 53 -16 40 vhcurveto
          171 28 115 102 172 vvcurveto
          168 -118 94 -103 84 vhcurveto
          hintmask 11011010
          -85 70 -68 52 105 vvcurveto
          100 89 41 104 132 74 -60 -15 11 vhcurveto
          38 183 rlineto
          15 -33 -96 24 -127 hhcurveto
          -203 -177 -108 -205 -162 93 -85 113 -96 hvcurveto
          100 -85 62 -46 -96 vvcurveto
          -112 -95 -30 -95 -130 -96 56 27 -41 vhcurveto
          endchar
        </CharString>
        <CharString name="scircumflex">
          -238 -53 callgsubr
          43 451 26 callsubr
          -180 695 -335 194 hintmask 00101000
          255 1199 -92 callsubr
          hintmask 11010100
          -134 -1233 -101 callgsubr
          endchar
        </CharString>
        <CharString name="second">
          -99 1190 592 hstemhm
          275 334 54 334 hintmask 11000000
          275 1190 6 callsubr
          hintmask 10100000
          259 -592 6 callsubr
          endchar
        </CharString>
        <CharString name="section">
          84 -186 155 1553 151 hstemhm
          205 208 -168 208 394 206 -166 206 hintmask 00000000
          hintmask 11011000
          131 -65 rmoveto
          -49 44 156 -72 165 hhcurveto
          321 242 135 259 -6 hvcurveto
          -2 72 -36 59 -54 49 rrcurveto
          hintmask 11010100
          85 65 49 88 -2 128 -4 191 -176 121 -166 81 -197 99 -107 49 10 156 rrcurveto
          85 8 113 71 159 hhcurveto
          76 158 -24 -81 63 hvcurveto
          63 151 rlineto
          45 -51 -106 60 -186 hhcurveto
          -321 -188 -138 -191 4 hvcurveto
          2 -120 56 -92 79 -73 rrcurveto
          hintmask 11101000
          -115 -57 -65 -73 3 -116 4 -227 193 -130 188 -78 rrcurveto
          188 -78 69 -70 -70 vvcurveto
          -156 -174 -35 -174 -126 -150 61 55 -37 vhcurveto
          521 451 rmoveto
          -197 99 -107 54 10 156 4 52 30 44 53 31 42 -26 44 -22 44 -20 rrcurveto
          hintmask 11010100
          220 -102 37 -83 -88 vvcurveto
          -66 -23 -49 -39 -35 vhcurveto
          hintmask 11101000
          -38 20 -40 18 -40 17 rrcurveto
          endchar
        </CharString>
        <CharString name="semicolon">
          -584 -480 -21 1309 -21 hstemhm
          164 276 -275 208 hintmask 10010000
          -32 callgsubr
          hintmask 01100000
          88 762 -75 callsubr
          endchar
        </CharString>
        <CharString name="seven">
          -14 986 160 -43 43 hstemhm
          102 958 hintmask 00000000
          hintmask 10100000
          279 -254 rmoveto
          178 -66 rlineto
          hintmask 01100000
          603 1423 rlineto
          hintmask 10100000
          -32 43 rlineto
          -892 hlineto
          -34 -162 732 4 rlineto
          endchar
        </CharString>
        <CharString name="six">
          153 -16 138 714 153 hstem
          145 197 569 199 vstem
          145 493 rmoveto
          -273 139 -236 274 359 193 329 292 195 -94 189 -255 -166 -107 -59 -61 -68 vhcurveto
          94 251 231 227 301 109 -44 115 rcurveline
          -493 -137 -364 -427 -514 vvcurveto
          197 -19 rmoveto
          72 8 56 19 85 vhcurveto
          47 43 102 102 199 hhcurveto
          109 89 -75 -185 -179 -84 -275 -223 -193 -69 170 182 hvcurveto
          endchar
        </CharString>
        <CharString name="slash">
          -17 callsubr
        </CharString>
        <CharString name="space">
          -625 endchar
        </CharString>
        <CharString name="sterling">
          258 -20 141 623 131 529 141 hstem
          1074 206 vstem
          68 -20 rmoveto
          82 94 53 69 53 hvcurveto
          -53 152 160 -69 213 hhcurveto
          416 41 221 125 1 hvcurveto
          1 109 -62 101 -79 64 -157 -119 rcurveline
          52 -29 39 -78 -53 vvcurveto
          -123 -67 -77 -211 -146 -123 62 34 -111 vhcurveto
          92 140 19 68 45 271 8 48 rcurveline
          317 hlineto
          17 131 rlineto
          -311 hlineto
          17 93 rlineto
          335 55 148 101 118 hhcurveto
          117 70 -58 -23 10 hvcurveto
          93 140 rlineto
          70 -66 -82 12 -111 hhcurveto
          -348 1 -166 -287 -40 -293 -16 -91 rcurveline
          -181 hlineto
          -18 -131 rlineto
          177 hlineto
          -42 -251 -11 -80 -32 -126 -68 -54 rlinecurve
          -96 1 -128 -90 -11 -70 rrcurveto
          -79 -12 48 -15 40 hhcurveto
          endchar
        </CharString>
        <CharString name="summation">
          483 -170 156 1370 166 -80 80 hstemhm
          227 1078 hintmask 00000000
          hintmask 11010000
          227 -116 rmoveto
          26 -54 rlineto
          1052 156 -772 hlineto
          475 695 -490 675 rlineto
          772 166 -1033 hlineto
          hintmask 10110000
          -30 -80 551 -767 rlineto
          endchar
        </CharString>
        <CharString name="t">
          -369 -16 155 845 156 hstem
          153 203 vstem
          153 163 rmoveto
          -137 83 -42 100 111 156 86 59 47 vhcurveto
          -25 108 rlineto
          -91 callsubr
          endchar
        </CharString>
        <CharString name="tbar">
          -369 -16 155 482 130 233 156 hstem
          153 203 vstem
          153 163 rmoveto
          -137 83 -42 100 111 156 86 59 47 vhcurveto
          -25 108 rlineto
          -32 -42 -119 -66 -52 hhcurveto
          -49 -7 55 54 39 7 32 10 75 hvcurveto
          29 227 rlineto
          262 hlineto
          16 130 rlineto
          -261 hlineto
          30 233 rlineto
          261 hlineto
          23 156 rlineto
          -262 hlineto
          36 280 rlineto
          -165 hlineto
          -62 -280 rlineto
          -105 hlineto
          -42 -156 rlineto
          116 hlineto
          -29 -233 rlineto
          -122 hlineto
          -16 -130 rlineto
          122 hlineto
          -39 -325 rlineto
          -13 -100 1 -22 -11 vvcurveto
          endchar
        </CharString>
        <CharString name="tcaron">
          -369 -16 155 845 156 105 645 hstemhm
          153 203 335 183 hintmask 11010000
          153 163 rmoveto
          -137 83 -42 100 111 156 86 59 47 vhcurveto
          -25 108 rlineto
          -91 callsubr
          hintmask 00101000
          603 1082 -81 callgsubr
        </CharString>
        <CharString name="thorn">
          53 -495 -21 500 143 -107 -21 1005 152 hstemhm
          868 202 hintmask 00000000
          hintmask 11011000
          83 -16 rmoveto
          -71 -500 rlineto
          190 hlineto
          56 380 rlineto
          hintmask 10111000
          20 135 rlineto
          hintmask 11011000
          -9 48 52 -6 44 -56 callsubr
          endchar
        </CharString>
        <CharString name="three">
          -6 -327 153 559 97 494 186 hstemhm
          696 231 -209 223 hintmask 00000000
          hintmask 11110000
          59 -164 rmoveto
          -16 -151 rlineto
          -8 61 51 -4 48 hhcurveto
          350 374 195 308 162 -123 144 -231 hvcurveto
          hintmask 11101000
          184 63 184 155 181 vvcurveto
          196 -157 85 -170 -214 -173 -99 -65 -67 vhcurveto
          62 -148 rlineto
          65 89 99 61 134 hhcurveto
          102 72 -50 -84 -203 -245 -80 -180 -37 hvcurveto
          -17 -171 142 34 rlineto
          hintmask 11110000
          202 -2 76 -90 -134 vvcurveto
          -216 -250 -117 -257 -37 -44 4 6 -49 vhcurveto
          endchar
        </CharString>
        <CharString name="threequarters">
          1450 166 149 219 129 367 -21 27 88 378 142 hstemhm
          688 222 -220 207 378 1014 hintmask 10100001
          1756 -177 -68 callgsubr
          hintmask 00000000
          -1693 440 -5 callgsubr
          hintmask 01011010
          -49 callsubr
          hintmask 01011100
          5 callgsubr
          hintmask 01011010
          577 -714 rmoveto
          -21 callgsubr
        </CharString>
        <CharString name="threesuperior">
          -39 534 129 373 88 378 142 hstemhm
          701 222 -220 207 hintmask 00000000
          hintmask 11101000
          124 606 -5 callgsubr
          hintmask 11110000
          -49 callsubr
          hintmask 11101000
          5 callgsubr
          endchar
        </CharString>
        <CharString name="tilde">
          -295 1348 4 callgsubr
          9 783 hintmask 00000000
          hintmask 01010000
          96 1397 -54 callgsubr
          hintmask 10010000
          -59 callsubr
          hintmask 00110000
          -69 callsubr
          hintmask 10010000
          -48 -38 -32 -62 -74 hhcurveto
          hintmask 01010000
          -76 callsubr
          endchar
        </CharString>
        <CharString name="tilde.cap">
          -297 1668 15 callgsubr
          9 783 hintmask 00000000
          hintmask 01100000
          96 1717 -54 callgsubr
          hintmask 10100000
          -73 callgsubr
          hintmask 01100000
          -76 callsubr
          endchar
        </CharString>
        <CharString name="trademark">
          1010 1385 145 -87 87 hstemhm
          1786 175 hintmask 00000000
          hintmask 10100000
          903 754 rmoveto
          161 hlineto
          98 532 rlineto
          hintmask 01100000
          26 157 35 -150 138 -547 rlineto
          127 hlineto
          295 624 29 70 -14 -223 -23 -463 rlineto
          174 hlineto
          hintmask 10100000
          25 776 rlineto
          -287 hlineto
          -236 -568 -30 132 -97 436 rlineto
          -273 hlineto
          -715 -777 rmoveto
          171 1 88 631 rlineto
          250 hlineto
          16 145 rlineto
          -666 hlineto
          -22 -145 rlineto
          251 hlineto
          endchar
        </CharString>
        <CharString name="two">
          139 0 134 867 161 hstem
          822 221 vstem
          95 hmoveto
          943 hlineto
          27 173 -719 -39 rlineto
          354 178 343 229 285 vvcurveto
          175 -112 161 -260 -212 -173 -113 -85 -81 vhcurveto
          73 -114 rlineto
          63 76 124 88 137 hhcurveto
          140 67 -63 -133 -211 -370 -273 -390 -191 hvcurveto
          endchar
        </CharString>
        <CharString name="twosuperior">
          53 637 126 731 153 hstem
          824 192 vstem
          215 637 -54 callsubr
          endchar
        </CharString>
        <CharString name="u">
          -62 callsubr
          34 callgsubr
          hintmask 00000000
          hintmask 10110000
          102 270 -79 callsubr
          hintmask 01110000
          -84 callgsubr
          hintmask 10110000
          -103 callgsubr
          endchar
        </CharString>
        <CharString name="uacute">
          -62 callsubr
          121 472 34 callgsubr
          267 459 hintmask 00010100
          651 1241 -90 callgsubr
          hintmask 00000000
          -466 -1042 -79 callsubr
          hintmask 10101000
          -84 callgsubr
          hintmask 01101000
          -103 callgsubr
          endchar
        </CharString>
        <CharString name="ubreve">
          -62 callsubr
          180 147 34 callgsubr
          80 140 -95 callgsubr
          578 1030 -106 callgsubr
          endchar
        </CharString>
        <CharString name="ucircumflex">
          -62 callsubr
          79 451 34 callgsubr
          12 695 hintmask 00010100
          390 1199 -92 callsubr
          hintmask 00000000
          -211 -1006 -79 callsubr
          hintmask 10101000
          -84 callgsubr
          hintmask 01101000
          -103 callgsubr
          endchar
        </CharString>
        <CharString name="udieresis">
          -62 callsubr
          268 263 34 callgsubr
          57 20 callsubr
          hintmask 00000000
          hintmask 00010110
          893 1388 rmoveto
          -107 callgsubr
          -420 hmoveto
          -107 callgsubr
          hintmask 00000000
          -371 -1118 -79 callsubr
          hintmask 10101000
          -84 callgsubr
          hintmask 01101000
          -103 callgsubr
          endchar
        </CharString>
        <CharString name="ugrave">
          -62 callsubr
          121 472 34 callgsubr
          -11 441 -95 callgsubr
          544 971 -79 callgsubr
        </CharString>
        <CharString name="uhungarumlaut">
          -62 callsubr
          122 470 34 callgsubr
          91 817 -95 callgsubr
          810 972 -61 callgsubr
          endchar
        </CharString>
        <CharString name="umacron">
          -62 callsubr
          305 149 34 callgsubr
          102 514 -95 callgsubr
          301 1155 -71 callgsubr
          endchar
        </CharString>
        <CharString name="underscore">
          225 -338 151 hstem
          -111 1398 vstem
          -91 -187 rmoveto
          -20 -151 rlineto
          1378 hlineto
          20 151 rlineto
          endchar
        </CharString>
        <CharString name="uni0001">
          endchar
        </CharString>
        <CharString name="uni0002">
          endchar
        </CharString>
        <CharString name="uni0003">
          endchar
        </CharString>
        <CharString name="uni0004">
          endchar
        </CharString>
        <CharString name="uni0005">
          endchar
        </CharString>
        <CharString name="uni0006">
          endchar
        </CharString>
        <CharString name="uni0007">
          endchar
        </CharString>
        <CharString name="uni0008">
          endchar
        </CharString>
        <CharString name="uni0015">
          endchar
        </CharString>
        <CharString name="uni0016">
          endchar
        </CharString>
        <CharString name="uni0017">
          endchar
        </CharString>
        <CharString name="uni0018">
          endchar
        </CharString>
        <CharString name="uni0019">
          endchar
        </CharString>
        <CharString name="uni00AD">
          596 endchar
        </CharString>
        <CharString name="uni0162">
          12 -464 165 320 29 callgsubr
          hstem
          392 171 vstem
          162 -285 rmoveto
          -67 callsubr
          69 -10 56 -18 40 hvcurveto
          44 -60 callgsubr
          -175 -1384 rlineto
          10 hlineto
          2 -36 -1 -49 -34 -44 callgsubr
          endchar
        </CharString>
        <CharString name="uni0163">
          -369 -464 165 307 -21 997 156 hstemhm
          153 203 -130 171 hintmask 00000000
          hintmask 11110000
          153 163 rmoveto
          -80 28 -48 44 -26 vhcurveto
          hintmask 11101000
          3 -36 -2 -55 -37 -44 callgsubr
          -67 callsubr
          62 -9 51 -14 39 hvcurveto
          106 15 128 74 42 53 -25 108 rcurveline
          hintmask 11110000
          -91 callsubr
          endchar
        </CharString>
        <CharString name="uni0218">
          -66 -18 callgsubr
          494 155 1256 151 26 callgsubr
          -35 191 178 206 hintmask 11000100
          404 -51 -104 callsubr
          hintmask 00111010
          -375 126 -72 callsubr
        </CharString>
        <CharString name="uni0219">
          -238 -18 callgsubr
          494 147 878 147 26 callsubr
          -63 191 52 194 hintmask 11000100
          353 -51 -104 callsubr
          hintmask 00111010
          -309 94 -101 callgsubr
          endchar
        </CharString>
        <CharString name="uni021A">
          12 -18 callgsubr
          531 29 callgsubr
          hstemhm
          129 1066 -808 191 hintmask 11000100
          445 -51 -26 callgsubr
          -64 51 rmoveto
          198 -60 callgsubr
          rlineto
          endchar
        </CharString>
        <CharString name="uni021B">
          -369 -18 callgsubr
          494 155 845 156 hstemhm
          153 203 -135 191 hintmask 11000100
          279 -51 -26 callgsubr
          -126 214 rmoveto
          -137 83 -42 100 111 156 86 59 47 vhcurveto
          -25 108 rlineto
          -91 callsubr
          endchar
        </CharString>
        <CharString name="uni02c9">
          -496 1729 149 hstem
          49 514 vstem
          49 -2 callgsubr
          endchar
        </CharString>
        <CharString name="uni0394">
          -40 callsubr
        </CharString>
        <CharString name="uni03A9">
          -77 callgsubr
        </CharString>
        <CharString name="uni03BC">
          -83 callsubr
        </CharString>
        <CharString name="uni1E02">
          16 callgsubr
          207 -21 hstemhm
          530 265 128 211 -190 198 hintmask 0000011000000000
          643 12 callsubr
          -97 callsubr
          hintmask 0000000000000000
          -533 -1696 rmoveto
          92 hlineto
          71 107 -14 77 hhcurveto
          hintmask 0111000100000000
          7 callsubr
          hintmask 1011000100000000
          8 callsubr
          hintmask 1011000010000000
          24 callsubr
          hintmask 1010100100000000
          -6 callgsubr
          hintmask 1011000010000000
          -53 -66 -2 3 -51 hvcurveto
          hintmask 1010100100000000
          -25 callsubr
        </CharString>
        <CharString name="uni1E03">
          53 -16 143 877 152 9 callsubr
          700 267 -99 202 hintmask 11001000
          -62 callgsubr
          hintmask 00110000
          515 1237 -96 callsubr
        </CharString>
        <CharString name="uni1E0A">
          -6 callsubr
          207 -21 hstemhm
          632 265 196 205 hintmask 00001100
          745 12 callsubr
          -97 callsubr
          hintmask 00000000
          -635 -1696 rmoveto
          101 hlineto
          56 97 -5 -4 45 hvcurveto
          hintmask 01100010
          -70 callsubr
          hintmask 10100010
          -17 callgsubr
          25 -1367 rmoveto
          hintmask 10010010
          154 1218 -70 callgsubr
          hintmask 10100010
          -4 callsubr
        </CharString>
        <CharString name="uni1E0B">
          51 -66 callsubr
          -15 -20 267 3 callgsubr
          79 202 63 267 hintmask 00000000
          hintmask 10100100
          -16 callsubr
          hintmask 01010100
          -24 callsubr
          hintmask 10100100
          -86 callsubr
          hintmask 00001010
          35 1252 -96 callsubr
        </CharString>
        <CharString name="uni1E1E">
          32 callgsubr
          187 -21 hstemhm
          110 983 -517 265 hintmask 00010100
          689 12 callsubr
          -97 callsubr
          hintmask 11101000
          -579 -1696 rmoveto
          -14 callgsubr
        </CharString>
        <CharString name="uni1E1F">
          -415 21 callsubr
          388 153 -5 -21 31 263 10 callgsubr
          -544 267 hintmask 00001010
          457 1686 rmoveto
          -107 callgsubr
          hintmask 00000000
          -309 -1686 rmoveto
          -91 callgsubr
          hintmask 11010100
          -85 callgsubr
          hintmask 11100100
          1 callsubr
          hintmask 11010100
          -87 callsubr
        </CharString>
        <CharString name="uni1E40">
          24 callgsubr
          207 -21 hstemhm
          48 1574 -711 265 hintmask 00001010
          1024 12 callsubr
          -97 callsubr
          hintmask 00000000
          -976 -1696 rmoveto
          200 hlineto
          238 1033 rlineto
          hintmask 01010100
          13 callgsubr
          hintmask 10100100
          -28 callsubr
        </CharString>
        <CharString name="uni1E41">
          659 11 callsubr
          -16 -20 268 3 callgsubr
          857 267 319 199 hintmask 00000000
          hintmask 10001000
          -80 callsubr
          hintmask 01001000
          20 214 -10 callgsubr
          hintmask 00110000
          734 -69 callgsubr
          endchar
        </CharString>
        <CharString name="uni1E56">
          25 callsubr
          207 -21 hstemhm
          661 265 44 201 hintmask 00001100
          774 12 callsubr
          -97 callsubr
          hintmask 00000000
          -664 -1696 rmoveto
          -3 callgsubr
          67 530 -27 callgsubr
          124 -289 hhcurveto
          hintmask 11100010
          25 callgsubr
          hintmask 11010010
          86 687 rlineto
          12 58 90 -24 callgsubr
          rrcurveto
          hintmask 11100010
          23 callgsubr
        </CharString>
        <CharString name="uni1E57">
          17 callgsubr
          268 3 callgsubr
          612 267 -13 202 hintmask 00000000
          hintmask 10110001
          278 -1 rmoveto
          hintmask 11010001
          -9 48 50 -6 44 -48 callsubr
          -158 -131 -103 -100 -76 hvcurveto
          hintmask 11001001
          2 callsubr
          hintmask 11010001
          -61 callsubr
          hvcurveto
          hintmask 11001001
          -55 -54 9 15 -44 hvcurveto
          hintmask 00000110
          429 1237 -96 callsubr
        </CharString>
        <CharString name="uni1E60">
          -12 callsubr
          171 -21 26 callgsubr
          187 265 -118 206 hintmask 00101000
          681 12 callsubr
          -97 callsubr
          hintmask 11010100
          -652 -1621 -72 callsubr
        </CharString>
        <CharString name="uni1E61">
          -238 -53 callgsubr
          232 263 26 callsubr
          80 267 -167 194 hintmask 11010100
          44 43 -101 callgsubr
          hintmask 00101000
          472 1174 -96 callsubr
        </CharString>
        <CharString name="uni1E6A">
          12 21 29 callgsubr
          188 -21 hstemhm
          129 1066 -596 265 hintmask 00101000
          712 12 callsubr
          -97 callsubr
          hintmask 11010000
          -331 -1696 rmoveto
          198 -60 callgsubr
          rlineto
          endchar
        </CharString>
        <CharString name="uni1E6B">
          -369 -16 155 845 156 353 3 callgsubr
          153 203 -31 267 hintmask 11010000
          153 163 rmoveto
          -137 83 -42 100 111 156 86 59 47 vhcurveto
          -25 108 rlineto
          -91 callsubr
          hintmask 00101000
          287 1330 -96 callsubr
        </CharString>
        <CharString name="uni2113">
          104 -16 161 1358 177 hstem
          293 170 441 168 vstem
          86 131 rmoveto
          126 -108 52 39 50 42 49 43 rlinecurve
          -106 53 82 -57 102 hhcurveto
          252 125 209 216 43 hvcurveto
          -162 25 rlineto
          -189 -17 -111 -100 -109 hhcurveto
          -50 -48 35 91 -30 hvcurveto
          345 350 234 434 398 vvcurveto
          133 -66 94 -114 -341 -258 -621 -547 -69 5 -62 9 -57 vhcurveto
          -68 -65 -73 -64 -80 -64 rrcurveto
          377 353 rmoveto
          30 vlineto
          420 188 569 190 37 26 -40 -44 -281 -145 -326 -296 -328 vhcurveto
          endchar
        </CharString>
        <CharString name="uni2215">
          -17 callsubr
        </CharString>
        <CharString name="uni2219">
          -424 645 -21 hstem
          208 276 vstem
          208 736 -75 callsubr
          endchar
        </CharString>
        <CharString name="uogonek">
          72 35 callgsubr
          267 171 -150 -21 41 -55 callgsubr
          34 callgsubr
          201 194 hintmask 00000000
          hintmask 11001110
          102 270 -79 callsubr
          hintmask 10101110
          -21 -216 -3 -2 rlineto
          -74 callgsubr
          hvcurveto
          hintmask 10011110
          -1 callsubr
          vhcurveto
          29 hlineto
          151 1140 rlineto
          -195 hlineto
          -97 -728 rlineto
          hintmask 11001110
          -103 callgsubr
          endchar
        </CharString>
        <CharString name="uring">
          -62 callsubr
          133 106 319 108 34 callgsubr
          112 14 callsubr
          hintmask 00011011
          700 1253 -89 callsubr
          hintmask 00000000
          -603 -1089 -79 callsubr
          hintmask 10100100
          -84 callgsubr
          hintmask 01100100
          -103 callgsubr
          endchar
        </CharString>
        <CharString name="utilde">
          -62 callsubr
          228 4 callgsubr
          102 199 -7 783 hintmask 00000000
          hintmask 10100010
          102 270 -79 callsubr
          hintmask 01100010
          -84 callgsubr
          hintmask 10100010
          -103 callgsubr
          hintmask 00000000
          279 1127 -54 callgsubr
          hintmask 00001001
          -59 callsubr
          hintmask 00010001
          -69 callsubr
          hintmask 00000101
          -48 -38 -32 -62 -74 hhcurveto
          hintmask 00010001
          -76 callsubr
          endchar
        </CharString>
        <CharString name="v">
          -103 5 -15 callsubr
          hstem
          808 185 vstem
          270 -16 rmoveto
          175 12 161 188 173 208 187 302 27 311 rlinecurve
          4 45 0 46 -3 44 rrcurveto
          -186 hlineto
          5 -46 -26 -174 -16 -66 -56 -232 -65 -105 -109 -175 -144 -188 rcurveline
          -10 205 -67 781 rlineto
          -218 hlineto
          110 -781 rlineto
          endchar
        </CharString>
        <CharString name="w">
          552 5 -15 callsubr
          hstem
          1435 188 vstem
          280 -16 -103 callsubr
          endchar
        </CharString>
        <CharString name="wacute">
          552 5 -15 callsubr
          121 472 hstemhm
          837 459 139 188 hintmask 00110000
          920 1241 -90 callgsubr
          hintmask 11001000
          -557 -1328 -103 callsubr
          endchar
        </CharString>
        <CharString name="wcircumflex">
          552 5 -15 callsubr
          79 451 hstemhm
          582 695 158 188 hintmask 00110000
          659 1199 -92 callsubr
          hintmask 11001000
          -302 -1292 -103 callsubr
          endchar
        </CharString>
        <CharString name="wdieresis">
          552 5 -15 callsubr
          268 3 callgsubr
          627 20 callsubr
          121 188 hintmask 00000000
          hintmask 00111000
          1162 1388 rmoveto
          -107 callgsubr
          -420 hmoveto
          -107 callgsubr
          hintmask 11000100
          -462 -1404 -103 callsubr
          endchar
        </CharString>
        <CharString name="wgrave">
          552 5 -15 callsubr
          121 472 hstemhm
          559 441 435 188 hintmask 11001000
          280 -16 -103 callsubr
          hintmask 00110000
          693 882 -79 callgsubr
        </CharString>
        <CharString name="x">
          -157 1140 -20 hstem
          -54 1035 vstem
          -54 4 rmoveto
          209 hlineto
          282 429 168 -429 rlineto
          229 hlineto
          -275 564 422 572 rlineto
          -212 hlineto
          -274 -411 -143 411 rlineto
          -234 hlineto
          254 -550 rlineto
          endchar
        </CharString>
        <CharString name="y">
          -27 callsubr
          hstem
          809 191 vstem
          -102 callsubr
          endchar
        </CharString>
        <CharString name="yacute">
          -27 callsubr
          121 472 hstemhm
          460 459 -110 191 hintmask 11100100
          -102 callsubr
          hintmask 00011000
          319 882 5 callsubr
        </CharString>
        <CharString name="ycircumflex">
          -27 callsubr
          79 451 hstemhm
          205 695 -91 191 hintmask 11100100
          -102 callsubr
          hintmask 00011000
          58 840 -39 callgsubr
        </CharString>
        <CharString name="ydieresis">
          -27 callsubr
          hstemhm
          809 191 vstemhm
          -102 callsubr
          561 1029 -46 callsubr
        </CharString>
        <CharString name="yen">
          373 21 -21 376 130 225 131 668 -20 hstem
          230 1210 vstem
          230 376 rmoveto
          411 hlineto
          -44 -376 rlineto
          177 hlineto
          44 376 rlineto
          417 hlineto
          17 130 rlineto
          -419 hlineto
          27 225 rlineto
          422 hlineto
          17 131 rlineto
          -357 hlineto
          498 668 rlineto
          -194 hlineto
          -368 -547 -66 -119 -41 111 -254 555 rlineto
          -193 hlineto
          318 -668 rlineto
          -348 hlineto
          -17 -131 rlineto
          407 hlineto
          -27 -225 rlineto
          -410 hlineto
          endchar
        </CharString>
        <CharString name="ygrave">
          -27 callsubr
          121 472 hstemhm
          182 441 186 191 hintmask 11100100
          -102 callsubr
          hintmask 00011000
          314 882 -79 callgsubr
        </CharString>
        <CharString name="z">
          -8 callsubr
          hstemhm
          -28 993 hintmask 00000000
          hintmask 11010000
          30 hmoveto
          -25 callgsubr
          hintmask 10110000
          597 782 rlineto
          hintmask 11010000
          -49 callgsubr
          endchar
        </CharString>
        <CharString name="zacute">
          -8 callsubr
          101 472 hstemhm
          -28 993 -487 459 hintmask 00010100
          561 1241 -90 callgsubr
          hintmask 00000000
          -448 -1312 -41 callsubr
        </CharString>
        <CharString name="zcaron">
          -8 callsubr
          115 395 hstemhm
          -28 993 -714 734 hintmask 00010100
          494 -76 callgsubr
          hintmask 00000000
          -221 -1562 -41 callsubr
        </CharString>
        <CharString name="zdotaccent">
          -8 callsubr
          248 3 callgsubr
          -28 993 -482 267 hintmask 00000000
          hintmask 11001000
          30 hmoveto
          -25 callgsubr
          hintmask 10101000
          597 782 rlineto
          hintmask 11001000
          -49 callgsubr
          hintmask 00010100
          626 1329 -96 callsubr
        </CharString>
        <CharString name="zero">
          168 -16 140 893 139 hstem
          103 207 648 207 vstem
          103 450 rmoveto
          -242 131 -224 305 360 266 331 376 264 -124 201 -307 -342 -289 -303 -403 vhcurveto
          207 16 rmoveto
          216 93 341 314 -6 vhcurveto
          177 -3 64 -138 -205 vvcurveto
          -256 -117 -291 -270 -177 -84 157 185 vhcurveto
          endchar
        </CharString>
      <CharString index="0">
        80 69 70 78 3 hvcurveto
        62 3 -49 53 -76 hhcurveto
        -73 -69 -67 -76 -3 hvcurveto
        -65 -3 53 -55 65 hhcurveto
        return
      </CharString>
      <CharString index="1">
        rmoveto
        198 116 163 155 22 hvcurveto
        2 11 1 11 11 vvcurveto
        -132 hlineto
        -60 -23 -30 -144 -147 hhcurveto
        -126 -25 104 69 -15 hvcurveto
        -2 11 -1 11 -1 9 rrcurveto
        -135 hlineto
        -1 -6 0 -7 -6 vvcurveto
        -159 83 -173 216 vhcurveto
        return
      </CharString>
      <CharString index="2">
        rmoveto
        -291 5 132 -170 253 hhcurveto
        336 232 349 363 -6 hvcurveto
        291 -5 -122 169 -253 hhcurveto
        -336 -242 -348 -363 6 hvcurveto
        420 -314 rmoveto
        -146 -68 117 199 -3 hvcurveto
        249 -5 115 313 228 hhcurveto
        146 57 -115 -199 3 hvcurveto
        -249 5 -104 -315 -228 hhcurveto
        return
      </CharString>
      <CharString index="3">
        rmoveto
        -37 44 156 -54 165 hhcurveto
        303 229 143 294 -5 hvcurveto
        -47 callgsubr
        -171 116 -70 69 7 160 rrcurveto
        171 8 153 35 119 hhcurveto
        76 128 -20 -65 63 hvcurveto
        63 151 rlineto
        37 -51 -106 48 -186 hhcurveto
        -271 -199 -150 -259 5 hvcurveto
        4 -222 158 -128 153 -101 rrcurveto
        165 -109 52 -92 -112 vvcurveto
        -175 -159 -59 -159 -126 -150 55 41 -37 vhcurveto
        return
      </CharString>
      <CharString index="4">
        -138 -94 -146 -123 -115 hhcurveto
        -89 -46 25 106 48 7 75 12 92 hvcurveto
        22 179 37 240 30 224 rrcurveto
        -196 hlineto
        -33 -220 -34 -242 -23 -180 rrcurveto
        -13 -102 -8 -82 -44 vvcurveto
        return
      </CharString>
      <CharString index="5">
        rmoveto
        -50 -165 rlineto
        -17 40 141 -18 88 hhcurveto
        197 264 95 316 49 hvcurveto
        170 1249 -117 -57 callsubr
        -197 -31 callsubr
        -260 98 -172 212 156 130 104 103 77 hvcurveto
        -49 -287 rlineto
        -163 -32 -73 -97 -170 hhcurveto
        -103 -98 26 26 -56 hvcurveto
        253 440 -45 callgsubr
        54 -10 -15 44 hvcurveto
        -86 -607 rlineto
        -105 -69 -130 -140 -140 hhcurveto
        return
      </CharString>
      <CharString index="6">
        rmoveto
        -30 35 128 -29 131 hhcurveto
        229 165 105 206 168 -118 94 -103 84 hvcurveto
        -85 70 -68 52 105 vvcurveto
        100 89 41 104 132 74 -60 -15 11 vhcurveto
        38 183 rlineto
        15 -33 -96 24 -127 hhcurveto
        -203 -177 -108 -205 -162 93 -85 113 -96 hvcurveto
        100 -85 62 -46 -96 vvcurveto
        -112 -95 -30 -95 -130 -96 56 27 -41 vhcurveto
        return
      </CharString>
      <CharString index="7">
        hintmask 00000000
        hintmask 10101000
        391 11 callgsubr
        124 104 102 74 hvcurveto
        hintmask 01101000
        33 callsubr
        172 hlineto
        156 1156 -113 -57 callsubr
        -187 -31 callsubr
        hvcurveto
        hintmask 10101000
        -100 callsubr
        hintmask 00010100
        return
      </CharString>
      <CharString index="8">
        -76 hmoveto
        211 hlineto
        182 396 rlineto
        594 hlineto
        66 -396 rlineto
        -3 callgsubr
        -286 1530 rlineto
        -219 hlineto
        -284 -983 rmoveto
        315 683 56 122 13 -116 115 -689 rlineto
        return
      </CharString>
      <CharString index="9">
        hlineto
        14 165 -700 -16 72 561 443 -15 12 166 -438 -7 67 527 581 -8 7 157 rlineto
        return
      </CharString>
      <CharString index="10">
        -10 callsubr
        96 710 rlineto
        138 105 170 123 113 -14 callsubr
        -28 -182 -23 -172 rrcurveto
        196 hlineto
        25 169 29 184 -18 callsubr
        -162 -165 -107 -134 -115 vhcurveto
        1 vlineto
        return
      </CharString>
      <CharString index="11">
        -107 callsubr
        endchar
      </CharString>
      <CharString index="12">
        hintmask 00000000
        hintmask 10101000
        102 270 -79 callsubr
        hintmask 01101000
        -84 callgsubr
        hintmask 10101000
        -103 callgsubr
        hintmask 00010100
        return
      </CharString>
      <CharString index="13">
        rmoveto
        96 36 169 132 62 111 -124 128 rcurveline
        -276 -342 rlineto
        return
      </CharString>
      <CharString index="14">
        864 21 callsubr
        0 -20 268 263 -123 -32 callsubr
        -49 744 -67 22 callgsubr
        hintmask 1010000010000000
        1514 hmoveto
        -82 callsubr
        hintmask 0001000001000000
        -64 callgsubr
        -1659 -92 callgsubr
        hintmask 1100101000000000
        -45 callsubr
        hintmask 0000000000000000
        -85 callgsubr
        hintmask 1100010100000000
        1 callsubr
        hintmask 1100100100000000
        -87 callsubr
      </CharString>
      <CharString index="15">
        -1388 rmoveto
        -91 callgsubr
        hintmask 1100011000000000
        -85 callgsubr
        hintmask 1100101000000000
        1 callsubr
        hintmask 1100011000000000
        -99 callsubr
        return
      </CharString>
      <CharString index="16">
        -29 callsubr
        133 984 rlineto
        220 hlineto
        12 156 rlineto
        -211 hlineto
        21 151 rlineto
        return
      </CharString>
      <CharString index="17">
        rmoveto
        119 46 221 221 36 68 -152 137 rcurveline
        -307 -401 rlineto
        return
      </CharString>
      <CharString index="18">
        -122 -116 -5 -41 rlineto
        63 -53 29 -76 -78 vvcurveto
        -160 -101 -122 -69 -35 vhcurveto
        -2 -22 75 -111 rlineto
        124 60 190 148 283 vvcurveto
        161 -100 127 -82 35 vhcurveto
        return
      </CharString>
      <CharString index="19">
        1629 -106 callgsubr
        return
      </CharString>
      <CharString index="20">
        169 21 callsubr
        0 -20 268 263 -123 -32 callsubr
        -67 22 callgsubr
        hintmask 1010000100000000
        819 hmoveto
        -82 callsubr
        hintmask 0001000010000000
        -64 callgsubr
        -964 -92 callgsubr
        endchar
      </CharString>
      <CharString index="21">
        89 445 -105 callgsubr
        return
      </CharString>
      <CharString index="22">
        16 126 68 110 110 1 68 1 32 -15 24 -18 rrcurveto
        return
      </CharString>
      <CharString index="23">
        -21 -218 rlineto
        182 hlineto
        151 1140 rlineto
        -195 hlineto
        -97 -728 rlineto
        return
      </CharString>
      <CharString index="24">
        267 -16 150 -113 -21 722 130 548 30 callgsubr
        hintmask 01110100
        110 hmoveto
        123 hlineto
        57 -1 79 -4 40 -4 rrcurveto
        hintmask 10110100
        -70 callsubr
        hintmask 10101100
        -17 callgsubr
        -86 -678 rlineto
        -159 hlineto
        -16 -130 rlineto
        159 hlineto
        127 -559 rmoveto
        71 559 rlineto
        382 hlineto
        16 130 rlineto
        -382 hlineto
        hintmask 10110100
        67 529 -70 callgsubr
        hintmask 10101100
        -4 callsubr
      </CharString>
      <CharString index="25">
        rmoveto
        176 hlineto
        315 299 -82 87 -313 -235 -252 235 -87 -88 rlineto
        return
      </CharString>
      <CharString index="26">
        rmoveto
        72 109 46 175 131 vvcurveto
        97 -4 76 -24 57 vhcurveto
        -177 -46 -9 -32 rlineto
        20 -30 11 -86 -75 vvcurveto
        -107 -19 -111 -22 -93 vhcurveto
        6 -25 rlineto
        endchar
      </CharString>
      <CharString index="27">
        380 hmoveto
        188 hlineto
        76 590 593 940 rlineto
        -212 hlineto
        -412 -692 -38 -76 -32 76 -248 692 rlineto
        -212 hlineto
        373 -940 rlineto
        return
      </CharString>
      <CharString index="28">
        rmoveto
        85 70 -288 402 -153 -137 64 -112 209 -188 83 -35 rlinecurve
        endchar
      </CharString>
      <CharString index="29">
        65 -183 36 -78 28 -44 227 -2 rcurveline
        -40 53 -51 118 -103 248 -26 81 -62 127 -51 52 232 71 128 199 -5 244 rrcurveto
        225 -5 -161 129 -304 hhcurveto
        return
      </CharString>
      <CharString index="30">
        549 0 151 -151 161 1229 156 hstemhm
        156 194 988 197 hintmask 00000000
        hintmask 10111000
        58 hmoveto
        555 hlineto
        40 139 rlineto
        -140 84 -163 233 298 vvcurveto
        438 231 198 299 204 254 -141 -362 -334 -203 -294 -228 -120 vhcurveto
        20 -139 rlineto
        586 hlineto
        hintmask 01111000
        13 161 rlineto
        -371 hlineto
        224 163 156 337 246 vvcurveto
        379 -281 260 -355 -418 -325 -241 -546 vhcurveto
        hintmask 10111000
        -254 151 -250 139 -104 vhcurveto
        -369 hlineto
        endchar
      </CharString>
      <CharString index="31">
        1255 rmoveto
        176 hlineto
        315 308 -82 87 -313 -244 -252 244 -87 -88 rlineto
        return
      </CharString>
      <CharString index="32">
        127 hmoveto
        -3 callgsubr
        193 1530 -22 callsubr
        return
      </CharString>
      <CharString index="33">
        -77 -47 -168 -96 -138 vvcurveto
        -63 56 -91 137 116 87 58 36 42 vhcurveto
        -51 99 rlineto
        -52 callsubr
        return
      </CharString>
      <CharString index="34">
        -59 callsubr
        -69 callsubr
        -48 -38 -32 -62 -74 hhcurveto
        return
      </CharString>
      <CharString index="35">
        -102 callgsubr
        endchar
      </CharString>
      <CharString index="36">
        rmoveto
        509 hlineto
        5 149 rlineto
        -510 hlineto
        return
      </CharString>
      <CharString index="37">
        rlineto
        10 40 86 9 54 hhcurveto
        304 121 -125 -369 6 hvcurveto
        6 -359 -161 -401 -374 -12 rrcurveto
        return
      </CharString>
      <CharString index="38">
        248 rmoveto
        -107 callgsubr
        return
      </CharString>
      <CharString index="39">
        rmoveto
        203 hlineto
        46 343 rlineto
        264 hlineto
        20 175 -262 -11 36 268 -202 -23 -36 -253 -333 -14 79 92 491 609 -133 103 rlineto
        -48 hlineto
        -606 -851 37 -95 rlineto
        492 hlineto
        return
      </CharString>
      <CharString index="40">
        206 hintmask 11010100
        -63 callgsubr
        hintmask 00101000
        return
      </CharString>
      <CharString index="41">
        -16 154 287 139 444 148 return
      </CharString>
      <CharString index="42">
        122 116 5 41 rlineto
        -63 53 -29 76 78 vvcurveto
        160 101 122 69 35 vhcurveto
        2 22 -75 111 rlineto
        -124 -60 -190 -148 -283 vvcurveto
        -161 100 -127 82 -35 vhcurveto
        return
      </CharString>
      <CharString index="43">
        -85 callsubr
        hintmask 0000000000000000
        return
      </CharString>
      <CharString index="44">
        599 -16 -105 callsubr
        return
      </CharString>
      <CharString index="45">
        83 -16 rmoveto
        113 33 rlineto
        -17 65 90 -16 71 -56 callsubr
        return
      </CharString>
      <CharString index="46">
        rmoveto
        79 37 171 210 47 105 -145 118 rcurveline
        -247 -416 rlineto
        -331 -54 rmoveto
        94 54 139 179 55 120 -145 117 rcurveline
        -237 -416 rlineto
        return
      </CharString>
      <CharString index="47">
        hlineto
        175 1384 420 -11 21 157 rlineto
        -1044 hlineto
        -22 -157 427 11 return
      </CharString>
      <CharString index="48">
        73 566 rlineto
        7 40 112 9 57 hhcurveto
        179 94 -75 -134 4 hvcurveto
        -213 6 -105 -163 -237 hhcurveto
        return
      </CharString>
      <CharString index="49">
        143 vstem
        194 963 rmoveto
        -487 384 -394 486 486 385 394 487 486 -385 391 -486 -486 -384 -391 -486 vhcurveto
        142 hmoveto
        413 309 338 419 419 309 -338 -413 -414 -309 -338 -419 -419 -309 338 414 vhcurveto
        return
      </CharString>
      <CharString index="50">
        268 -16 152 1253 157 return
      </CharString>
      <CharString index="51">
        -41 callgsubr
        268 3 callgsubr
        124 22 callgsubr
        hintmask 11010000
        124 hmoveto
        -82 callsubr
        hintmask 00101000
        -85 callsubr
        endchar
      </CharString>
      <CharString index="52">
        -21 1140 -20 return
      </CharString>
      <CharString index="53">
        rmoveto
        38 40 34 52 65 -1 rrcurveto
        return
      </CharString>
      <CharString index="54">
        -16 147 878 147 return
      </CharString>
      <CharString index="55">
        767 hlineto
        22 170 -570 -5 172 1365 -22 callsubr
        return
      </CharString>
      <CharString index="56">
        -864 -785 rmoveto
        252 160 221 219 172 -79 123 -198 -239 -174 -213 -212 -176 95 -134 183 hvcurveto
        29 123 rmoveto
        -93 -53 77 112 118 73 183 151 86 49 -70 -111 -114 -64 -195 -149 hvcurveto
        return
      </CharString>
      <CharString index="57">
        155 21 0 callgsubr
        983 -20 return
      </CharString>
      <CharString index="58">
        -48 52 rlineto
        -723 hlineto
        -22 -156 rlineto
        539 hlineto
        -160 -169 -579 -756 rlineto
        return
      </CharString>
      <CharString index="59">
        -25 86 rlineto
        -898 hlineto
        -22 -168 690 14 -134 -159 -779 -1128 rlineto
        return
      </CharString>
      <CharString index="60">
        -4 206 -156 118 -146 99 return
      </CharString>
      <CharString index="61">
        -10 callsubr
        223 1634 rlineto
        -195 hlineto
        return
      </CharString>
      <CharString index="62">
        -42 callsubr
        55 return
      </CharString>
      <CharString index="63">
        vvcurveto
        -149 -77 -31 -82 -31 -23 5 9 -17 vhcurveto
        return
      </CharString>
      <CharString index="64">
        -419 hmoveto
        78 71 -31 callgsubr
        return
      </CharString>
      <CharString index="65">
        rmoveto
        185 hlineto
        135 988 -69 21 -51 -41 -225 -103 -140 -35 rlinecurve
        6 -123 261 52 rlineto
        return
      </CharString>
      <CharString index="66">
        -526 -22 callgsubr
        return
      </CharString>
      <CharString index="67">
        1730 -35 callgsubr
        return
      </CharString>
      <CharString index="68">
        -92 callsubr
        endchar
      </CharString>
      <CharString index="69">
        hhcurveto
        194 159 123 79 57 hvcurveto
        -55 111 rlineto
        -107 -114 -118 -52 -100 hhcurveto
        -184 -32 165 122 6 hvcurveto
        230 16 443 132 333 vvcurveto
        141 -89 109 -192 return
      </CharString>
      <CharString index="70">
        151 132 102 108 29 hvcurveto
        -71 73 rlineto
        -70 -47 -66 -47 -89 -113 -76 172 -153 hhcurveto
        return
      </CharString>
      <CharString index="71">
        219 416 rlineto
        483 hlineto
        -52 -416 -16 callgsubr
        -1331 hlineto
        return
      </CharString>
      <CharString index="72">
        rmoveto
        -89 callgsubr
        return
      </CharString>
      <CharString index="73">
        -78 -10 49 -47 71 hhcurveto
        79 77 58 89 12 hvcurveto
        68 9 -34 57 -95 hhcurveto
        -75 -72 -64 -83 -11 hvcurveto
        return
      </CharString>
      <CharString index="74">
        47 -504 148 340 152 877 143 return
      </CharString>
      <CharString index="75">
        69 83 rmoveto
        59 -18 37 -85 -88 vvcurveto
        -125 -74 -109 -100 -49 vhcurveto
        -3 -21 73 -89 rlineto
        183 66 129 172 222 vvcurveto
        102 -38 146 -153 58 vhcurveto
        -106 -128 rlineto
        return
      </CharString>
      <CharString index="76">
        70 77 3 hvcurveto
        return
      </CharString>
      <CharString index="77">
        336 286 return
      </CharString>
      <CharString index="78">
        -78 callsubr
        endchar
      </CharString>
      <CharString index="79">
        -49 -26 callgsubr
        return
      </CharString>
      <CharString index="80">
        rlineto
        -5 29 58 -5 95 hhcurveto
        364 257 244 393 -7 hvcurveto
        265 -4 -164 return
      </CharString>
      <CharString index="81">
        -104 callsubr
        hintmask 00111000
        return
      </CharString>
      <CharString index="82">
        777 hlineto
        15 156 rlineto
        -598 hlineto
        144 150 rlineto
        return
      </CharString>
      <CharString index="83">
        9 53 hhcurveto
        200 91 -91 -168 -3 hvcurveto
        -5 -294 -120 -166 -282 -3 return
      </CharString>
      <CharString index="84">
        961 hlineto
        28 170 -752 -12 124 145 rlineto
        return
      </CharString>
      <CharString index="85">
        21 -55 callgsubr
        return
      </CharString>
      <CharString index="86">
        159 hlineto
        681 1530 rlineto
        -159 hlineto
        endchar
      </CharString>
      <CharString index="87">
        -21 22 -21 653 156 585 152 -16 -20 return
      </CharString>
      <CharString index="88">
        230 -16 155 431 159 657 160 return
      </CharString>
      <CharString index="89">
        -539 -21 71 -21 return
      </CharString>
      <CharString index="90">
        -93 -127 -15 -1 -90 hvcurveto
        -108 hlineto
        return
      </CharString>
      <CharString index="91">
        rlineto
        902 -98 callgsubr
        return
      </CharString>
      <CharString index="92">
        -68 callsubr
        hstem
        return
      </CharString>
      <CharString index="93">
        -3 callgsubr
        90 710 476 -16 12 168 -470 -8 66 527 597 -8 14 157 rlineto
        -790 hlineto
        endchar
      </CharString>
      <CharString index="94">
        1 callgsubr
        388 -32 callsubr
        return
      </CharString>
      <CharString index="95">
        31 -16 158 1238 166 return
      </CharString>
      <CharString index="96">
        -205 -16 149 876 147 return
      </CharString>
      <CharString index="97">
        rlineto
        -185 hlineto
        return
      </CharString>
</ttFont>
